<?xml version="1.0" encoding="UTF-8"?>
<!DOCTYPE svg PUBLIC "-//W3C//DTD SVG 1.1//EN" "http://www.w3.org/Graphics/SVG/1.1/DTD/svg11.dtd">
<!-- Creator: CorelDRAW X6 -->
<svg xmlns="http://www.w3.org/2000/svg" xml:space="preserve" width="1.66666in" height="1.25407in" version="1.1" style="shape-rendering:geometricPrecision; text-rendering:geometricPrecision; image-rendering:optimizeQuality; fill-rule:evenodd; clip-rule:evenodd"
viewBox="0 0 1013 762"
 xmlns:xlink="http://www.w3.org/1999/xlink">
 <defs>
  <style type="text/css">
   <![CDATA[
    .fil0 {fill:#3F3B3A}
    .fil2 {fill:#504E4D}
    .fil1 {fill:#FEFEFE;fill-rule:nonzero}
    .fil3 {fill:#FEFEFE;fill-rule:nonzero}
   ]]>
  </style>
 </defs>
 <g id="Capa_x0020_1">
  <metadata id="CorelCorpID_0Corel-Layer"/>
  <g id="_214072656">
   <rect class="fil0" x="185" y="669" width="642" height="93" rx="24" ry="24"/>
   <path class="fil1" d="M284 753c-4,0 -8,-1 -10,-4 -2,-3 -4,-7 -4,-12 0,-6 2,-13 5,-21 3,-8 7,-15 13,-21 4,-5 9,-9 13,-12 4,-3 9,-4 12,-4 3,0 5,1 7,3 2,2 2,4 2,7 0,3 -1,5 -2,8 -1,3 -3,5 -6,7 -1,1 -3,2 -5,3 -2,1 -3,1 -4,1 -1,0 -1,-1 -2,-2 -1,-1 -1,-2 -1,-3 0,-1 1,-1 2,-2 2,-1 3,-1 4,-2 2,-1 4,-3 5,-5 1,-2 2,-4 2,-6 0,-1 0,-2 -1,-3 -1,-1 -1,-1 -3,-1 -2,0 -5,1 -8,4 -3,3 -6,6 -9,11 -5,7 -9,14 -11,20 -3,7 -4,13 -4,18 0,3 0,5 1,6 1,1 2,2 4,2 2,0 5,-1 8,-3 3,-2 5,-5 8,-8 0,-1 1,-1 2,-2 1,-1 2,-2 2,-2 1,0 1,0 2,1 1,1 1,2 1,2 0,1 0,1 -1,3 -1,1 -2,3 -3,4 -4,4 -7,8 -11,10 -4,2 -7,3 -10,3z"/>
   <path id="1" class="fil1" d="M344 713c-1,0 -2,-1 -3,-1 -1,-1 -1,-2 -1,-3 0,-2 0,-3 1,-4 1,-1 2,-2 4,-2 2,0 3,1 4,2 1,1 1,3 1,6 0,3 0,6 -1,9 -1,3 -2,6 -4,9 -2,3 -4,5 -6,6 -2,1 -4,2 -7,2 -2,0 -3,0 -5,-1 -1,0 -2,-1 -3,-2 -2,1 -3,1 -5,2 -2,0 -4,1 -6,1l1 -5c1,0 3,0 4,-1 1,0 2,-1 3,-1 0,-1 -1,-2 -1,-3 0,-1 0,-2 0,-3 0,-3 1,-6 2,-9 1,-3 3,-6 5,-8 2,-2 4,-4 6,-5 2,-1 5,-2 7,-2 1,0 1,0 1,0 0,0 0,1 0,1 0,1 -1,1 -2,3 -1,1 -2,2 -3,3 -3,3 -5,6 -6,10 -1,3 -2,6 -2,9 0,1 0,2 1,3 1,1 1,1 3,1 3,0 5,-2 7,-5 2,-4 4,-8 4,-12z"/>
   <path id="2" class="fil1" d="M359 732c-1,1 -2,2 -4,3 -1,1 -3,1 -5,1l1 -5c3,0 5,-1 7,-4 2,-2 3,-6 5,-11 1,-3 1,-5 2,-9 1,-5 3,-7 5,-7 2,0 3,0 4,0 1,0 1,1 1,1 0,0 -1,3 -2,6 -2,4 -3,7 -4,11 4,-6 7,-11 11,-14 3,-3 6,-4 9,-4 2,0 3,0 4,1 1,1 1,2 1,3 0,2 -1,6 -4,13l-1 2c-1,2 -1,3 -1,4 0,1 -1,2 -1,3 0,1 0,2 1,2 1,0 2,1 4,1l-1 5 -1 0c-4,0 -7,-1 -9,-2 -2,-1 -3,-3 -3,-5 0,-1 0,-3 1,-5 1,-2 2,-5 3,-8l0 -1c1,-3 2,-5 2,-5 0,0 0,-1 0,-1 0,0 -1,0 -1,0 -1,0 -4,2 -7,6 -3,4 -6,8 -8,14 0,1 -1,2 -2,4 -1,3 -3,4 -6,4 -1,0 -2,0 -2,0 0,0 -1,-1 -1,-1 0,0 0,-1 0,-1 0,0 0,-1 1,-2z"/>
   <path id="3" class="fil1" d="M394 736l1 -5c3,0 5,-1 6,-3 2,-2 3,-5 4,-9l3 -11 -4 0c-1,0 -1,0 -1,0 0,0 0,0 0,-1 0,0 0,0 0,0 0,0 0,0 0,0l1 -2c0,0 0,-1 1,-1 0,0 1,0 2,0l3 0 4 -12c0,-1 0,-2 1,-3 1,-3 2,-5 5,-5 2,0 3,0 4,1 1,0 1,1 1,2 0,0 0,1 -1,3 0,1 -1,1 -1,2l-4 13 6 0c0,0 1,0 1,0 0,0 0,0 0,1 0,0 0,0 0,0 0,0 0,0 0,0l-1 2c0,0 0,1 -1,1 0,0 -1,0 -2,0l-5 0 -4 12c0,1 -1,2 -1,3 0,1 0,2 0,2 0,1 1,3 2,3 1,1 3,1 6,1l-1 5 -1 0c-3,0 -6,0 -8,-1 -2,-1 -4,-2 -5,-3 -2,1 -3,2 -5,3 -2,1 -4,1 -6,1z"/>
   <path id="4" class="fil1" d="M422 736l1 -5c3,-1 6,-3 8,-6 3,-4 5,-10 9,-19 -1,-1 -1,-1 -1,-2 0,-1 0,-1 0,-2 0,-2 0,-3 1,-4 1,-1 2,-2 4,-2 1,0 2,0 3,1 1,1 1,2 1,3 0,1 0,1 0,2 0,1 0,1 -1,2 1,1 3,2 5,3 4,2 5,4 5,6 0,2 -1,5 -3,9 -2,4 -3,7 -3,8 0,1 0,2 1,2 1,0 2,1 5,1l-1 5 -1 0c-4,0 -8,-1 -10,-2 -2,-1 -3,-3 -3,-5 0,-2 1,-5 3,-9 2,-4 3,-7 3,-8 0,-1 0,-1 -1,-2 -1,-1 -2,-1 -3,-2 -3,10 -7,16 -10,21 -4,4 -8,6 -13,7z"/>
   <path id="5" class="fil1" d="M490 713c-1,0 -2,-1 -3,-1 -1,-1 -1,-2 -1,-3 0,-2 0,-3 1,-4 1,-1 2,-2 4,-2 2,0 3,1 4,2 1,1 1,3 1,6 0,3 0,6 -1,9 -1,3 -2,6 -4,9 -2,3 -4,5 -6,6 -2,1 -4,2 -7,2 -2,0 -3,0 -5,-1 -1,0 -2,-1 -3,-2 -2,1 -3,1 -5,2 -2,0 -4,1 -6,1l1 -5c1,0 3,0 4,-1 1,0 2,-1 3,-1 0,-1 -1,-2 -1,-3 0,-1 0,-2 0,-3 0,-3 1,-6 2,-9 1,-3 3,-6 5,-8 2,-2 4,-4 6,-5 2,-1 5,-2 7,-2 1,0 1,0 1,0 0,0 0,1 0,1 0,1 -1,1 -2,3 -1,1 -2,2 -3,3 -3,3 -5,6 -6,10 -1,3 -2,6 -2,9 0,1 0,2 1,3 1,1 1,1 3,1 3,0 5,-2 7,-5 2,-4 4,-8 4,-12z"/>
   <path id="6" class="fil1" d="M497 736l1 -5c1,0 3,0 4,-1 1,-1 3,-2 5,-4 1,-6 2,-11 3,-17 1,-6 3,-12 5,-18 2,-5 3,-8 5,-10 1,-2 3,-3 5,-3 1,0 2,0 3,1 1,1 1,2 1,4 0,2 -1,4 -2,7 -1,3 -3,6 -6,9 -2,6 -3,12 -5,17 -1,5 -2,9 -2,10 0,1 0,2 1,3 1,1 2,1 3,1l-1 5 -1 0c-3,0 -5,0 -6,-1 -2,-1 -3,-2 -3,-4 -2,2 -3,3 -5,3 -2,1 -4,1 -6,1z"/>
   <path id="7" class="fil1" d="M571 722c-3,10 -5,16 -8,20 -3,4 -6,6 -10,6 -3,0 -5,-1 -7,-4 -2,-2 -2,-6 -2,-10 0,-5 1,-12 4,-19 3,-7 6,-14 10,-20 4,-6 8,-10 13,-13 4,-3 9,-5 14,-5 5,0 8,1 11,4 3,3 4,7 4,12 0,3 0,6 -1,9 -1,3 -2,6 -4,9 -2,4 -4,6 -7,8 -3,2 -6,3 -9,3 -1,0 -2,0 -3,0 -1,0 -2,0 -4,-1zm1 -6c0,0 0,0 1,0 0,0 1,0 1,0 4,0 7,-2 10,-6 3,-4 4,-9 4,-15 0,-3 -1,-5 -2,-7 -1,-2 -3,-2 -5,-2 -2,0 -5,1 -7,3 -3,2 -5,4 -8,8 -2,2 -4,5 -5,8 -2,3 -3,7 -5,10 -2,4 -3,8 -4,11 -1,3 -1,6 -1,8 0,2 0,3 1,4 0,1 1,1 2,1 2,0 4,-3 6,-9 2,-6 3,-14 4,-24 0,0 0,-1 0,-1 0,-2 1,-4 1,-4 1,-1 2,-2 3,-2 1,-1 2,-1 3,-1 1,0 1,0 1,1 0,1 0,2 0,5l0 1c0,2 0,4 0,6 0,2 0,4 -1,6z"/>
   <path id="8" class="fil1" d="M626 708c-1,-1 -1,-1 -2,-1 -1,0 -1,0 -2,0 -1,0 -3,1 -5,2 -2,1 -4,3 -5,5 -2,2 -3,4 -4,6 -1,2 -1,4 -1,6 0,1 0,2 1,3 0,1 1,1 2,1 2,0 5,-2 8,-5 3,-4 6,-9 9,-16zm-4 14c-3,5 -5,8 -8,10 -3,2 -5,3 -8,3 -1,0 -3,0 -4,-1 -1,0 -2,-1 -2,-2 -1,1 -3,1 -4,2 -2,0 -3,1 -6,1l1 -5c1,0 3,0 4,-1 1,0 2,-1 3,-1 0,-1 0,-1 0,-2 0,-1 0,-1 0,-2 0,-2 0,-4 1,-7 1,-2 2,-5 4,-7 2,-4 5,-6 8,-8 3,-2 6,-3 9,-3 2,0 3,0 4,1 1,0 2,1 3,2l1 -2c0,-1 1,-2 1,-2 0,0 1,0 1,0 2,0 3,0 4,1 1,1 2,1 2,2 0,0 -1,1 -2,3 -1,2 -2,4 -3,6 -2,4 -3,7 -4,10 -1,3 -1,5 -1,6 0,1 0,2 1,2 1,0 2,1 4,1l-1 5 -1 0c-4,0 -7,0 -8,-1 -2,-1 -2,-2 -2,-4 0,-1 0,-2 0,-3 0,-1 1,-3 1,-5z"/>
   <path id="9" class="fil1" d="M644 732c-1,1 -2,2 -4,3 -1,1 -3,1 -5,1l1 -5c3,0 5,-1 7,-4 2,-2 3,-6 5,-11 1,-3 1,-5 2,-9 1,-5 3,-7 5,-7 2,0 3,0 4,0 1,0 1,1 1,1 0,0 -1,3 -2,6 -2,4 -3,7 -4,11 4,-6 7,-11 11,-14 3,-3 6,-4 9,-4 2,0 3,0 4,1 1,1 1,2 1,3 0,2 -1,6 -4,13l-1 2c-1,2 -1,3 -1,4 0,1 -1,2 -1,3 0,1 0,2 1,2 1,0 2,1 4,1l-1 5 -1 0c-4,0 -7,-1 -9,-2 -2,-1 -3,-3 -3,-5 0,-1 0,-3 1,-5 1,-2 2,-5 3,-8l0 -1c1,-3 2,-5 2,-5 0,0 0,-1 0,-1 0,0 -1,0 -1,0 -1,0 -4,2 -7,6 -3,4 -6,8 -8,14 0,1 -1,2 -2,4 -1,3 -3,4 -6,4 -1,0 -2,0 -2,0 0,0 -1,-1 -1,-1 0,0 0,-1 0,-1 0,0 0,-1 1,-2z"/>
   <path id="10" class="fil1" d="M697 724c3,-2 5,-4 6,-7 2,-3 3,-5 3,-7 0,-1 0,-2 -1,-2 -1,-1 -1,-1 -2,-1 -2,0 -4,1 -5,4 -2,2 -2,5 -2,8 0,1 0,2 0,3 0,1 1,2 1,2zm-4 8c-2,1 -5,2 -7,3 -2,1 -5,1 -7,1l1 -5c2,0 3,0 5,-1 1,0 3,-1 4,-1 -1,-1 -2,-3 -2,-4 0,-2 -1,-3 -1,-6 0,-5 2,-9 5,-13 3,-4 7,-5 12,-5 3,0 5,1 6,2 1,2 2,4 2,6 0,3 -1,6 -3,10 -2,4 -5,7 -9,9 1,1 2,2 3,2 1,0 3,1 5,1l1 0 -1 5 -1 0c-3,0 -5,0 -7,-1 -2,-1 -4,-2 -5,-3z"/>
   <path id="11" class="fil1" d="M710 736l1 -5c1,0 3,0 4,-1 1,-1 3,-2 5,-4 1,-6 2,-11 3,-17 1,-6 3,-12 5,-18 2,-5 3,-8 5,-10 1,-2 3,-3 5,-3 1,0 2,0 3,1 1,1 1,2 1,4 0,2 -1,4 -2,7 -1,3 -3,6 -6,9 -2,6 -3,12 -5,17 -1,5 -2,9 -2,10 0,1 0,2 1,3 1,1 2,1 3,1l-1 5 -1 0c-3,0 -5,0 -6,-1 -2,-1 -3,-2 -3,-4 -2,2 -3,3 -5,3 -2,1 -4,1 -6,1z"/>
   <g>
    <g>
     <path class="fil2" d="M4 225l82 180c57,-7 815,-219 826,-228 -7,-24 -80,-155 -96,-178l-406 111c-91,27 -347,90 -406,114z"/>
     <path class="fil0" d="M104 435c3,21 71,164 84,180l824 -223c-18,-42 -75,-152 -100,-180l-809 222z"/>
     <path class="fil0" d="M0 206c42,-8 130,-32 166,-45 27,-10 28,-35 37,-65 8,-27 17,-53 24,-82 -39,14 -67,44 -103,64 -35,-17 -44,-51 -77,-66l-46 194z"/>
     <path class="fil0" d="M831 460l-40 143c37,-15 69,-47 104,-67 31,20 46,50 80,64l38 -187 -182 47z"/>
     <path class="fil3" d="M210 277c-1,2 -2,4 -4,5 -2,1 -3,2 -5,3 -4,1 -7,0 -10,-2 -2,-3 -3,-7 -3,-13 0,-13 4,-25 12,-36 8,-11 17,-18 28,-21 8,-2 13,-2 18,1 4,3 6,7 6,14 0,4 -1,9 -2,15 -1,6 -3,14 -6,24 12,-24 22,-42 30,-53 8,-11 16,-17 24,-19 5,-1 8,-1 11,1 3,2 4,6 4,11 0,7 -4,20 -12,41l-2 4c14,-25 25,-43 35,-55 9,-12 18,-19 26,-21 4,-1 8,-1 11,1 3,2 4,6 4,10 0,7 -4,22 -13,45l-2 6 -1 3c-9,24 -13,37 -13,41 0,4 1,6 4,7 2,1 6,1 12,-1l-3 12 -2 1c-10,3 -18,3 -23,1 -5,-2 -7,-7 -7,-14 0,-7 5,-23 16,-51 2,-6 4,-10 5,-13l1 -2c5,-12 7,-20 7,-22 0,-1 0,-2 -1,-3 -1,-1 -2,-1 -3,0 -4,1 -12,10 -23,26 -11,16 -21,35 -30,55 -3,6 -5,13 -8,19 -3,6 -5,13 -7,20 -1,3 -2,4 -3,5 -1,1 -4,2 -7,3 -5,1 -8,2 -10,2 -2,0 -3,-1 -3,-3 0,-1 2,-6 6,-16 3,-8 6,-14 8,-19 7,-19 13,-35 17,-47 4,-12 6,-20 6,-23 0,-2 0,-3 -1,-4 -1,-1 -2,-1 -4,-1 -5,1 -12,9 -21,23 -9,14 -18,32 -26,52 -3,8 -6,16 -10,26 -3,9 -5,15 -5,16 -1,3 -2,5 -3,5 -1,1 -4,2 -7,3 -4,1 -7,1 -9,1 -2,0 -3,-1 -3,-2 0,-1 2,-7 6,-18 4,-10 7,-19 10,-27 4,-12 7,-23 10,-33 2,-10 4,-18 4,-22 0,-4 -1,-6 -3,-8 -2,-1 -4,-2 -8,-1 -5,2 -10,6 -14,12 -4,7 -6,14 -6,22 0,3 1,6 2,9 1,2 3,4 4,5z"/>
     <path id="1" class="fil3" d="M349 302l3 -12c3,-1 6,-2 9,-4 3,-2 6,-4 8,-6 0,0 0,-1 0,-1 0,0 0,-1 0,-2 0,-5 3,-17 8,-34 1,-3 2,-6 2,-8 1,-2 1,-4 2,-7 3,-9 5,-14 8,-15 4,-1 7,-1 11,-1 3,0 5,1 5,3 0,1 -1,4 -4,10 -3,6 -5,12 -7,17 -3,9 -6,16 -7,20 -1,5 -2,8 -2,10 0,2 0,3 1,3 1,1 2,1 4,0 4,-1 8,-5 12,-12 5,-7 9,-16 13,-27 2,-6 5,-13 7,-21 2,-8 5,-13 9,-14 3,-1 7,-1 9,-1 3,0 4,1 4,3 0,1 -1,4 -4,10 -2,6 -5,12 -6,17 -3,7 -4,13 -6,18 -1,5 -2,9 -2,12 0,3 1,4 2,5 1,1 4,0 8,0l-3 12 -2 0c-8,2 -13,3 -16,2 -3,-1 -4,-4 -4,-8 0,-2 0,-4 1,-7 1,-3 2,-6 3,-11 -8,14 -14,23 -19,28 -5,5 -9,8 -14,10 -3,1 -6,1 -8,1 -2,-1 -4,-2 -5,-4 -3,3 -6,5 -10,7 -3,2 -7,4 -12,6z"/>
     <path id="2" class="fil3" d="M460 252c2,0 4,1 5,2 1,1 3,3 4,5 5,-2 9,-6 12,-11 3,-5 4,-10 4,-16 0,-2 0,-5 -1,-7 0,-3 -1,-5 -2,-8 -2,5 -5,11 -9,17 -4,6 -8,13 -13,19zm-31 29l3 -12c5,-2 12,-9 20,-20 8,-11 17,-25 25,-43 -1,-1 -2,-2 -2,-3 0,-1 -1,-2 -1,-4 0,-4 2,-8 5,-12 3,-4 7,-6 11,-8 3,-1 5,-1 6,0 2,1 2,3 2,5 0,2 -1,5 -2,7 -1,3 -3,5 -6,8 5,4 8,8 10,12 2,4 3,8 3,13 0,4 -1,8 -2,13 -1,4 -3,8 -6,12 1,0 3,0 4,0 2,0 3,0 6,-1l2 0 -3 12 -2 1c-3,1 -6,1 -8,1 -3,0 -5,0 -8,0 -3,2 -6,4 -9,6 -3,1 -6,3 -8,3 -4,1 -8,2 -12,1 -4,0 -7,-1 -9,-3 -3,3 -5,5 -8,7 -3,2 -6,4 -10,5z"/>
     <path id="3" class="fil3" d="M498 261l3 -12c6,-2 12,-7 16,-15 4,-8 9,-20 12,-36 1,-3 1,-6 2,-10 2,-8 7,-14 16,-16 2,-1 4,-1 5,0 1,0 2,1 2,2 0,2 -1,5 -3,10 -2,5 -3,9 -4,12l-8 25 0 1c-2,6 -3,10 -3,12 0,2 1,4 2,4 1,0 5,0 9,-1l-3 12 -3 1c-7,2 -12,2 -15,2 -3,-1 -5,-3 -6,-7 -3,4 -6,8 -10,11 -4,3 -8,5 -12,6zm53 -114c-3,1 -5,1 -7,-1 -2,-1 -2,-3 -2,-6 0,-4 1,-8 4,-11 2,-3 5,-6 9,-7 3,-1 5,0 7,1 2,1 3,3 3,6 0,4 -1,8 -4,11 -2,3 -5,5 -9,6z"/>
     <path id="4" class="fil3" d="M538 250l3 -12c3,-1 6,-2 9,-4 3,-2 5,-3 8,-6 -1,-2 -2,-4 -3,-7 -1,-3 -1,-6 -1,-9 0,-12 4,-23 12,-34 8,-11 18,-18 28,-21 5,-1 10,-1 13,0 3,2 5,4 5,9 0,3 -1,5 -2,7 -2,2 -4,4 -6,4 -1,0 -1,0 -2,0 0,0 -1,-1 -1,-2 0,-2 -1,-4 -2,-5 -1,-1 -3,-1 -5,0 -5,1 -10,6 -14,13 -4,7 -6,14 -6,22 0,8 2,12 7,15 5,2 12,2 23,-1l-3 12c-1,0 -2,1 -3,1 0,0 0,0 0,0 -7,2 -14,3 -19,3 -5,0 -10,-1 -13,-3 -4,4 -8,7 -12,9 -5,3 -10,5 -15,7z"/>
     <path id="5" class="fil3" d="M671 155c-1,-1 -3,-1 -4,-1 -1,0 -3,0 -4,0 -3,1 -7,3 -11,7 -4,4 -8,9 -12,14 -3,5 -6,10 -8,16 -2,5 -3,10 -3,13 0,3 0,4 1,5 1,1 2,1 4,1 5,-1 11,-7 17,-16 6,-9 13,-23 19,-39zm-8 32c-6,12 -11,20 -17,27 -6,6 -11,10 -18,12 -3,1 -6,1 -8,1 -2,0 -4,-1 -5,-2 -3,2 -6,4 -9,6 -3,2 -7,3 -12,5l3 -12c3,-1 5,-2 8,-3 2,-1 4,-3 6,-4 0,-1 0,-2 0,-3 0,-1 0,-2 0,-4 0,-4 1,-9 3,-15 2,-6 5,-12 8,-18 5,-9 11,-16 18,-22 6,-6 13,-10 20,-11 3,-1 6,-1 9,-1 2,0 5,1 7,3l1 -4c1,-2 1,-4 2,-5 1,-1 2,-1 3,-2 4,-1 7,-1 10,-1 3,1 4,2 4,3 0,1 -1,3 -3,8 -2,5 -4,10 -6,14 -3,9 -6,16 -8,23 -2,6 -3,11 -3,14 0,2 1,3 2,4 1,0 4,0 9,-1l-3 11 -1 0c-8,2 -14,3 -17,2 -3,-1 -5,-3 -5,-7 0,-2 0,-4 1,-7 1,-3 2,-7 3,-11z"/>
     <path id="6" class="fil3" d="M676 212l3 -12c3,-1 6,-2 9,-5 3,-2 7,-6 11,-11 2,-12 4,-25 7,-39 3,-14 7,-27 11,-41 3,-11 7,-19 10,-24 3,-5 7,-8 11,-9 3,-1 5,0 7,1 2,2 3,4 3,7 0,4 -2,10 -5,17 -3,7 -7,15 -13,23 -4,14 -7,27 -10,39 -2,12 -4,19 -4,23 0,3 1,5 2,6 1,1 4,1 7,0l-3 12 -2 1c-6,2 -11,2 -14,1 -3,-1 -5,-3 -6,-6 -3,4 -7,8 -11,11 -4,3 -8,5 -12,6z"/>
     <path class="fil3" d="M265 516c-6,22 -12,38 -18,49 -6,10 -13,17 -22,19 -6,2 -11,0 -14,-4 -4,-4 -5,-11 -5,-20 0,-12 3,-26 8,-43 5,-17 13,-34 21,-49 8,-15 17,-27 27,-36 9,-9 19,-15 30,-18 10,-3 17,-2 23,3 6,5 8,13 8,24 0,6 -1,12 -3,19 -2,7 -4,14 -7,21 -4,9 -9,16 -15,22 -6,6 -12,10 -20,12 -2,0 -3,1 -6,1 -2,0 -5,1 -8,1zm3 -14c1,0 1,0 2,0 1,0 1,0 2,0 8,-2 15,-9 21,-19 6,-11 9,-22 9,-35 0,-7 -1,-11 -3,-14 -2,-3 -6,-3 -10,-2 -5,1 -10,5 -16,10 -6,6 -12,13 -17,21 -4,6 -8,13 -11,21 -4,8 -7,16 -10,25 -3,10 -6,19 -8,27 -2,8 -3,14 -3,18 0,3 0,6 1,7 1,1 2,2 4,1 4,-1 9,-9 13,-23 4,-14 7,-32 9,-53 0,0 0,-1 0,-2 0,-5 1,-8 3,-10 2,-2 4,-5 7,-7 3,-2 5,-4 6,-4 1,0 2,0 3,1 0,1 1,5 1,10l0 2c0,4 0,8 0,12 0,4 -1,9 -1,13z"/>
     <path id="1" class="fil3" d="M297 537l3 -12c6,-2 12,-7 16,-15 4,-8 9,-20 12,-36 1,-3 1,-6 2,-10 2,-8 7,-14 16,-16 2,-1 4,-1 5,0 1,0 2,1 2,2 0,2 -1,5 -3,10 -2,5 -3,9 -4,12l-8 25 0 1c-2,6 -3,10 -3,12 0,2 1,4 2,4 1,0 5,0 9,-1l-3 12 -3 1c-7,2 -12,2 -15,2 -3,-1 -5,-3 -6,-7 -3,4 -6,8 -10,11 -4,3 -8,5 -12,6zm53 -114c-3,1 -5,1 -7,-1 -2,-1 -2,-3 -2,-6 0,-4 1,-8 4,-11 2,-3 5,-6 9,-7 3,-1 5,0 7,1 2,1 3,3 3,6 0,4 -1,8 -4,11 -2,3 -5,5 -9,6z"/>
     <path id="2" class="fil3" d="M414 446c-1,-1 -3,-1 -4,-1 -1,0 -3,0 -4,0 -3,1 -7,3 -11,7 -4,4 -8,9 -12,14 -3,5 -6,10 -8,16 -2,5 -3,10 -3,13 0,3 0,4 1,5 1,1 2,1 4,1 5,-1 11,-7 17,-16 6,-9 13,-23 19,-39zm-8 32c-6,12 -11,20 -17,27 -6,6 -11,10 -18,12 -3,1 -6,1 -8,1 -2,0 -4,-1 -5,-2 -3,2 -6,4 -9,6 -3,2 -7,3 -12,5l3 -12c3,-1 5,-2 8,-3 2,-1 4,-3 6,-4 0,-1 0,-2 0,-3 0,-1 0,-2 0,-4 0,-4 1,-9 3,-15 2,-6 5,-12 8,-18 5,-9 11,-16 18,-22 6,-6 13,-10 20,-11 3,-1 6,-1 9,-1 2,0 5,1 7,3l1 -4c1,-2 1,-4 2,-5 1,-1 2,-1 3,-2 4,-1 7,-1 10,-1 3,1 4,2 4,3 0,1 -1,3 -3,8 -2,5 -4,10 -6,14 -3,9 -6,16 -8,23 -2,6 -3,11 -3,14 0,2 1,3 2,4 1,0 4,0 9,-1l-3 11 -1 0c-8,2 -14,3 -17,2 -3,-1 -5,-3 -5,-7 0,-2 0,-4 1,-7 1,-3 2,-7 3,-11z"/>
     <path id="3" class="fil3" d="M438 490c-2,3 -5,6 -8,8 -3,2 -7,4 -10,5l3 -12c6,-2 10,-6 14,-12 4,-6 7,-15 11,-27 2,-6 3,-13 5,-20 2,-10 5,-16 10,-17 4,-1 7,-2 9,-2 2,0 3,1 3,2 0,1 -2,6 -5,15 -3,9 -6,18 -9,26 8,-16 16,-27 23,-35 7,-8 14,-13 20,-15 3,-1 6,-1 8,1 2,1 3,3 3,7 0,4 -3,14 -9,31l-2 6c-1,4 -2,7 -3,10 -1,3 -1,5 -1,6 0,2 1,3 2,3 1,0 4,0 9,-1l-3 12 -2 1c-9,2 -15,3 -19,2 -4,-1 -6,-4 -6,-9 0,-2 1,-6 2,-11 2,-5 4,-12 7,-20l1 -2c3,-7 4,-11 4,-12 0,-1 0,-2 -1,-2 0,0 -1,0 -2,0 -3,1 -8,6 -14,16 -7,10 -12,21 -17,34 -1,3 -2,6 -3,9 -2,7 -7,11 -13,13 -2,1 -4,1 -4,1 -1,0 -1,-1 -1,-2 0,-1 0,-1 0,-2 0,-1 1,-2 1,-4z"/>
     <path id="4" class="fil3" d="M563 414c-3,0 -5,0 -6,-1 -1,-1 -2,-3 -2,-6 0,-4 1,-7 3,-10 2,-3 5,-5 8,-6 4,-1 6,0 8,2 2,2 3,6 3,11 0,6 -1,13 -3,20 -2,7 -5,14 -9,21 -4,7 -8,13 -13,17 -4,4 -9,7 -14,8 -4,1 -7,1 -10,1 -3,0 -5,-1 -7,-3 -3,3 -7,5 -11,7 -4,2 -8,4 -12,5l3 -12c3,-1 5,-2 8,-3 2,-1 4,-3 6,-4 -1,-2 -1,-3 -1,-5 0,-2 0,-4 0,-6 0,-6 1,-12 4,-19 2,-7 6,-13 10,-19 4,-5 8,-10 13,-14 5,-4 10,-7 14,-8 1,0 2,0 3,0 1,0 1,1 1,2 0,1 -1,3 -4,7 -3,3 -5,6 -6,8 -5,8 -10,16 -13,24 -3,8 -4,15 -4,21 0,3 1,5 2,6 1,1 3,2 5,1 5,-2 11,-7 16,-16 5,-9 8,-19 8,-29z"/>
     <path id="5" class="fil3" d="M646 381l14 -47c-6,-1 -11,-1 -16,0 -5,0 -8,1 -12,2 -5,1 -9,3 -11,6 -3,2 -4,5 -4,8 0,0 0,1 0,3 0,1 0,1 0,1 0,1 -1,2 -2,2 -1,1 -1,1 -2,1 -2,1 -4,0 -6,-1 -1,-1 -2,-3 -2,-6 0,-7 3,-12 8,-18 5,-5 12,-9 21,-12 7,-2 15,-3 23,-4 8,0 17,0 25,2 -4,14 -8,25 -10,35 -3,9 -5,18 -8,25 1,0 3,0 5,0 9,-1 13,0 13,3 0,0 0,2 -1,3 0,1 0,2 -1,2l-5 18 0 0c-1,3 -3,5 -7,6 -2,1 -3,1 -4,1 -1,0 -1,-1 -1,-2 0,0 0,0 0,-1 0,0 0,0 0,-1l3 -14c-1,0 -3,0 -4,0 -1,0 -3,0 -5,1 -8,27 -17,48 -26,61 -10,14 -22,22 -36,26 -8,2 -15,2 -20,0 -5,-2 -8,-6 -8,-12 0,-3 1,-6 3,-8 2,-3 4,-4 7,-5l0 0c1,4 3,7 5,9 3,2 7,2 11,0 10,-3 18,-9 25,-19 7,-10 13,-26 19,-48 -5,1 -9,3 -14,6 -5,2 -7,4 -8,4 0,0 -1,0 -1,0 0,0 0,-1 0,-1l0 -1 2 -10c0,-2 3,-4 6,-6 4,-2 11,-4 20,-7z"/>
     <path id="6" class="fil3" d="M739 366c-3,0 -5,0 -6,-1 -1,-1 -2,-3 -2,-6 0,-4 1,-7 3,-10 2,-3 5,-5 8,-6 4,-1 6,0 8,2 2,2 3,6 3,11 0,6 -1,13 -3,20 -2,7 -5,14 -9,21 -4,7 -8,13 -13,17 -4,4 -9,7 -14,8 -4,1 -7,1 -10,1 -3,0 -5,-1 -7,-3 -3,3 -7,5 -11,7 -4,2 -8,4 -12,5l3 -12c3,-1 5,-2 8,-3 2,-1 4,-3 6,-4 -1,-2 -1,-3 -1,-5 0,-2 0,-4 0,-6 0,-6 1,-12 4,-19 2,-7 6,-13 10,-19 4,-5 8,-10 13,-14 5,-4 10,-7 14,-8 1,0 2,0 3,0 1,0 1,1 1,2 0,1 -1,3 -4,7 -3,3 -5,6 -6,8 -5,8 -10,16 -13,24 -3,8 -4,15 -4,21 0,3 1,5 2,6 1,1 3,2 5,1 5,-2 11,-7 16,-16 5,-9 8,-19 8,-29z"/>
     <path id="7" class="fil3" d="M740 415l3 -12c7,-3 13,-9 18,-18 5,-9 12,-25 19,-46 -1,-1 -2,-2 -3,-3 -1,-1 -1,-3 -1,-5 0,-4 1,-7 3,-10 2,-3 5,-5 8,-6 3,-1 5,-1 7,0 2,1 3,3 3,6 0,1 0,2 0,4 0,1 -1,2 -1,4 3,1 6,2 10,3 8,2 12,5 12,9 0,3 -2,10 -6,20 -4,10 -6,17 -6,20 0,2 1,3 2,3 1,0 5,0 11,-1l-3 11 -2 1c-10,3 -16,3 -20,2 -4,-1 -6,-4 -6,-9 0,-4 2,-11 6,-21 4,-10 6,-16 6,-18 0,-1 -1,-2 -2,-3 -1,-1 -4,-2 -7,-3 -7,22 -14,39 -22,50 -8,11 -16,18 -27,22z"/>
     <path id="8" class="fil3" d="M808 396l3 -12c6,-2 11,-5 14,-10 3,-4 6,-11 9,-21l7 -25 -8 2c-1,0 -2,0 -2,0 0,0 -1,-1 -1,-1 0,0 0,0 0,0 0,0 0,0 0,-1l1 -4c0,-1 1,-2 2,-3 1,-1 2,-1 5,-2l6 -2 8 -28c0,-1 1,-4 2,-6 2,-7 5,-12 10,-13 3,-1 6,-1 8,-1 2,0 3,1 3,3 0,1 -1,3 -2,7 -1,2 -1,3 -1,4l-9 29 13 -4c1,0 2,0 2,0 1,0 1,1 1,1 0,0 0,1 0,1 0,0 0,0 0,1l-1 4c0,1 -1,2 -2,3 -1,1 -2,1 -4,2l-12 3 -8 28c-1,3 -2,6 -2,8 0,2 -1,4 -1,5 0,3 1,5 4,6 3,1 7,1 13,-1l-3 12 -2 1c-7,2 -13,3 -18,2 -5,0 -8,-2 -10,-4 -3,4 -7,7 -11,10 -4,3 -8,5 -13,6z"/>
     <path id="9" class="fil3" d="M894 347c5,-5 10,-11 14,-18 4,-7 6,-13 6,-17 0,-2 -1,-4 -2,-5 -1,-1 -3,-1 -5,0 -4,1 -8,5 -12,11 -3,6 -5,12 -5,19 0,3 0,5 1,6 1,2 2,3 3,4zm-8 19c-5,4 -10,7 -15,10 -5,3 -10,5 -16,7l3 -12c4,-1 7,-3 10,-4 3,-2 6,-3 9,-5 -2,-2 -3,-5 -4,-8 -1,-3 -1,-7 -1,-11 0,-11 4,-21 11,-30 7,-10 16,-16 26,-19 5,-2 10,-1 13,1 3,2 5,6 5,12 0,6 -2,14 -7,23 -5,9 -11,17 -18,25 2,1 5,2 7,2 3,0 6,0 10,-1l1 0 -3 12 -2 1c-6,2 -11,2 -16,2 -4,0 -8,-1 -12,-3z"/>
    </g>
    <path class="fil1" d="M470 556l7 0c4,0 7,0 9,1 5,2 9,5 12,9 1,2 2,3 2,4 1,3 2,6 2,9 0,6 -2,11 -6,15 -1,1 -2,2 -3,3 -2,1 -3,2 -5,3 -2,1 -3,1 -5,2 -1,0 -3,1 -6,1l-7 0c-2,0 -3,-1 -3,-2 0,0 0,-1 0,-2l0 -41c0,-2 1,-3 2,-3 0,0 1,0 2,0zm2 9l0 30c0,1 1,2 2,3 0,0 1,0 1,0l3 0c6,0 10,-2 14,-6 2,-3 3,-5 4,-9 0,-1 0,-2 0,-2l0 -1c0,-4 -1,-7 -4,-10 -1,-1 -2,-3 -4,-4 -3,-2 -7,-3 -11,-3l-3 0c-1,0 -2,1 -3,2 0,0 0,1 0,1z"/>
    <path id="1" class="fil1" d="M521 569c5,0 9,2 12,5 1,1 2,2 2,3 0,0 0,0 0,0 0,1 0,1 -1,2 0,0 -6,4 -16,12 0,0 -1,1 -3,2 0,0 0,1 0,1l0 0c0,0 0,1 1,1 2,1 3,1 5,1l1 0c3,0 5,-1 7,-3 1,-1 2,-2 2,-3 0,-1 1,-1 1,-2 0,-1 1,-2 1,-2 1,-1 1,-1 2,-1 1,0 2,1 3,2 0,0 0,1 0,1l0 0c0,1 0,2 -1,4 0,1 -1,2 -2,4 -1,1 -2,2 -3,3 -1,1 -3,2 -4,2 -2,1 -4,1 -6,1l-1 0c-3,0 -7,-1 -10,-3 -2,-1 -3,-2 -4,-4 -1,-1 -1,-2 -2,-3 -1,-2 -1,-5 -1,-7 0,-4 1,-8 4,-11 1,-1 2,-2 3,-3 3,-2 7,-3 10,-3zm-11 17c0,2 0,2 1,3 0,0 1,0 1,0 0,0 1,0 2,-1 0,0 5,-3 13,-9 0,0 0,-1 0,-1l0 0c0,0 0,-1 -1,-1 -2,-1 -3,-1 -5,-1l-1 0c-3,0 -5,1 -7,3 -2,2 -4,5 -4,8z"/>
    <path id="2" class="fil1" d="M550 569c1,0 3,0 4,1 2,1 3,3 3,4 0,1 0,2 -1,2 0,0 -1,0 -1,0 -1,0 -1,0 -2,-1 -1,-1 -1,-1 -2,-1l0 0c-1,0 -2,1 -2,2 0,0 0,1 0,1 0,1 1,2 2,2 4,3 7,4 7,5 1,1 1,1 2,2 1,2 2,4 2,6 0,3 -1,6 -4,8 -2,1 -4,2 -6,2 -2,0 -4,-1 -6,-2 -1,-1 -2,-2 -3,-3 -1,-1 -1,-2 -1,-2l0 0c0,-1 0,-2 1,-2 1,0 1,0 2,0 1,0 2,0 3,1 0,1 1,1 1,1 1,1 2,2 3,2 1,0 3,-1 4,-2 1,-1 1,-2 1,-3 0,-2 -1,-3 -3,-4 -4,-3 -6,-4 -7,-5 -2,-2 -3,-4 -3,-7 0,-2 1,-4 2,-6 2,-2 4,-2 6,-2z"/>
    <path id="3" class="fil1" d="M594 556l0 0c1,0 2,1 2,2 0,0 0,1 0,1l0 42c0,1 -1,2 -2,3 0,0 -1,0 -1,0 -1,0 -2,-1 -3,-2 0,-1 -1,-1 -1,-1l0 0c0,0 -1,0 -1,0 -3,2 -6,3 -9,3l0 0c-3,0 -7,-1 -10,-3 -2,-1 -3,-3 -4,-4 -2,-3 -3,-6 -3,-10 0,-3 1,-7 3,-10 2,-2 3,-3 4,-4 1,-1 3,-2 5,-2 2,0 3,-1 5,-1 3,0 6,1 9,3 0,0 0,0 1,0 1,0 1,0 1,-1 0,0 0,0 0,0l0 -12c0,-2 1,-3 2,-3 0,0 1,0 1,0zm-25 30l0 0c0,3 1,6 4,8 2,2 5,3 7,3l1 0c2,0 5,-1 7,-3 1,-1 2,-2 2,-2 1,-2 2,-4 2,-6l0 0c0,-3 -1,-6 -4,-8 -2,-2 -5,-3 -7,-3l-1 0c-2,0 -5,1 -7,3 -1,1 -2,2 -2,2 -1,2 -2,4 -2,6z"/>
    <path id="4" class="fil1" d="M616 569c5,0 9,2 12,5 1,1 2,2 2,3 0,0 0,0 0,0 0,1 0,1 -1,2 0,0 -6,4 -16,12 0,0 -1,1 -3,2 0,0 0,1 0,1l0 0c0,0 0,1 1,1 2,1 3,1 5,1l1 0c3,0 5,-1 7,-3 1,-1 2,-2 2,-3 0,-1 1,-1 1,-2 0,-1 1,-2 1,-2 1,-1 1,-1 2,-1 1,0 2,1 3,2 0,0 0,1 0,1l0 0c0,1 0,2 -1,4 0,1 -1,2 -2,4 -1,1 -2,2 -3,3 -1,1 -3,2 -4,2 -2,1 -4,1 -6,1l-1 0c-3,0 -7,-1 -10,-3 -2,-1 -3,-2 -4,-4 -1,-1 -1,-2 -2,-3 -1,-2 -1,-5 -1,-7 0,-4 1,-8 4,-11 1,-1 2,-2 3,-3 3,-2 7,-3 10,-3zm-11 17c0,2 0,2 1,3 0,0 1,0 1,0 0,0 1,0 2,-1 0,0 5,-3 13,-9 0,0 0,-1 0,-1l0 0c0,0 0,-1 -1,-1 -2,-1 -3,-1 -5,-1l-1 0c-3,0 -5,1 -7,3 -2,2 -4,5 -4,8z"/>
    <path id="5" class="fil1" d="M663 556l6 0c0,0 0,0 0,0l0 44c0,1 0,2 -1,3 -1,1 -1,1 -2,1 -1,0 -2,-1 -3,-2 0,0 0,-1 0,-2l0 -30c0,-1 0,-2 -1,-2 0,0 0,0 0,0l-4 0c0,0 0,0 0,0l0 -6c0,0 0,0 0,0l0 0c1,0 3,-1 4,-2 1,-1 1,-2 1,-3l0 0c0,0 0,0 0,0z"/>
    <path id="6" class="fil1" d="M690 556l0 0c4,0 8,2 11,5 2,3 3,6 3,9l0 1c0,2 -1,5 -3,8 -7,14 -11,22 -12,24l-6 0 0 0c0,0 3,-5 8,-16 0,0 0,0 0,0 0,-1 0,-1 -1,-1 -4,0 -7,-1 -9,-3 -1,-1 -3,-2 -4,-4 -2,-2 -2,-5 -2,-8l0 -1c0,-3 1,-6 3,-9 1,-2 3,-3 3,-3 2,-1 4,-2 6,-2 0,0 1,0 2,0zm-9 14l0 1c0,2 1,4 3,6 2,2 4,2 6,2l1 0c2,0 4,-1 6,-3 2,-2 2,-4 2,-6l0 -1c0,-2 -1,-4 -3,-6 -2,-2 -4,-2 -6,-2l-1 0c-2,0 -4,1 -6,3 -2,2 -2,4 -2,6z"/>
    <path id="7" class="fil1" d="M724 556l0 0c4,0 8,2 11,5 2,3 3,6 3,9l0 1c0,2 -1,5 -3,8 -7,14 -11,22 -12,24l-6 0 0 0c0,0 3,-5 8,-16 0,0 0,0 0,0 0,-1 0,-1 -1,-1 -4,0 -7,-1 -9,-3 -1,-1 -3,-2 -4,-4 -2,-2 -2,-5 -2,-8l0 -1c0,-3 1,-6 3,-9 1,-2 3,-3 3,-3 2,-1 4,-2 6,-2 0,0 1,0 2,0zm-9 14l0 1c0,2 1,4 3,6 2,2 4,2 6,2l1 0c2,0 4,-1 6,-3 2,-2 2,-4 2,-6l0 -1c0,-2 -1,-4 -3,-6 -2,-2 -4,-2 -6,-2l-1 0c-2,0 -4,1 -6,3 -2,2 -2,4 -2,6z"/>
    <path id="8" class="fil1" d="M761 556l7 0 0 0c-10,15 -15,23 -16,24 0,0 0,0 0,1l0 0c0,1 0,1 1,1 0,0 0,0 1,0l6 0c1,0 2,0 2,-1 0,0 0,0 0,0l0 -8c0,0 0,0 0,0l6 0c0,0 0,0 0,0l0 9 6 0c0,0 0,0 0,0l0 6c0,0 0,0 0,0l-6 0 0 13c0,1 -1,2 -2,3 0,0 -1,0 -1,0l0 0c-1,0 -2,-1 -3,-2 0,0 0,-1 0,-2l0 -12 -16 0c-1,0 -3,0 -3,-1 0,0 0,-1 0,-1l0 0c0,-1 1,-2 2,-4 0,0 5,-8 16,-24 0,-1 1,-1 1,-1z"/>
   </g>
  </g>
 </g>
</svg>
