<?xml version="1.0" encoding="UTF-8"?>
<!DOCTYPE svg PUBLIC "-//W3C//DTD SVG 1.1//EN" "http://www.w3.org/Graphics/SVG/1.1/DTD/svg11.dtd">
<!-- Creator: CorelDRAW X6 -->
<svg xmlns="http://www.w3.org/2000/svg" xml:space="preserve" width="11.546in" height="1.28147in" version="1.1" style="shape-rendering:geometricPrecision; text-rendering:geometricPrecision; image-rendering:optimizeQuality; fill-rule:evenodd; clip-rule:evenodd"
viewBox="0 0 13370 1484"
 xmlns:xlink="http://www.w3.org/1999/xlink">
 <defs>
  <style type="text/css">
   <![CDATA[
    .str0 {stroke:#FEFEFE;stroke-width:11.5796;stroke-linejoin:round}
    .fil0 {fill:none}
    .fil1 {fill:#FEFEFE;fill-rule:nonzero}
   ]]>
  </style>
 </defs>
 <g id="Capa_x0020_1">
  <metadata id="CorelCorpID_0Corel-Layer"/>
  <g id="_278032576">
   <path class="fil0 str0" d="M914 1411c2,14 3,29 5,43 12,8 23,16 35,24 14,-6 29,-13 43,-19 0,-16 0,-32 0,-48 -15,8 -30,16 -45,23 -13,-8 -25,-16 -38,-23m-235 -525l161 -70m-194 53l169 -68m-767 -245l148 -58m-116 72l147 -57m-117 72l148 -57m-118 73l149 -57m-120 73l151 -58m-121 74l152 -58m-122 74l153 -59m-123 75l154 -59m-124 75l155 -60m-126 75l157 -60m-127 76l158 -61m-128 76l159 -61m-129 77l160 -62m-130 77l161 -62m-132 78l162 -62m-133 78l164 -63m-134 79l165 -63m-135 79l166 -64m-136 80l167 -64m-138 80l168 -65m-78 112c12,-6 23,-12 35,-18m4 38c-239,-125 -478,-250 -717,-376 51,-19 102,-37 152,-56l674 333m-118 140c-241,-129 -482,-257 -723,-386m842 246c-36,15 -75,33 -112,48 -1,10 -1,17 -1,27 19,17 15,13 -5,34 0,10 0,20 0,30 9,5 18,10 27,14 161,-64 322,-127 483,-191m-301 -285c-1,28 -2,55 -3,83 4,8 9,16 13,24 40,71 44,150 -38,189 -21,8 -42,17 -63,25m406 -421c-105,33 -210,66 -315,99 -260,-104 -520,-208 -780,-312m1095 187c-5,152 -11,303 -16,455m-1080 -663c258,101 517,203 775,304 132,-39 264,-78 396,-117 93,-145 -80,-124 266,-237m-1353 887l27 8 25 -20c1,-72 3,-145 4,-217 46,24 91,48 137,72 30,17 60,34 90,50 13,7 27,15 40,22 2,70 4,141 6,211 -16,7 -32,15 -48,22 0,12 0,24 0,36 -82,19 -32,72 24,20 13,5 20,13 32,18 -94,36 1,75 22,14 18,13 36,25 54,38 29,-13 59,-27 88,-40l0 -36 -64 -44c-1,-60 -1,-119 -2,-179 25,13 50,27 74,40 40,-15 80,-31 121,-46 7,3 15,7 22,10 6,141 5,287 11,428m516 -557c-1,-118 20,-286 46,-406 152,-70 111,-100 123,-269 1,-21 3,-42 4,-62 134,-142 -172,-120 -382,-82 -163,29 -221,40 -389,42 -113,1 -225,2 -338,2l-328 88c1,29 1,58 2,86 131,166 -29,202 -161,245 -2,25 18,11 22,21 3,6 -4,21 -1,27 -11,17 -15,18 -15,31l0 34c72,38 136,75 207,114 9,94 18,184 30,277l-2 34 33 13 24 -15 -2 -42m695 420c0,-3 0,-6 1,-8 9,-136 15,-396 68,-498l179 -74c21,-9 42,-17 62,-26 5,-72 -2,-268 62,-306l-8 390 32 18 36 -16 0 -36 -35 15 -32 -19m-726 283l-13 -7c-1,-56 1,-117 1,-174l0 -8 10 6 7 4 -4 178z"/>
   <path class="fil1" d="M2449 1132l-306 -666 0 529c0,49 5,79 16,91 15,16 38,24 69,24l28 0 0 22 -278 0 0 -22 28 0c34,0 58,-10 72,-30 9,-13 13,-41 13,-85l0 -517c0,-35 -4,-61 -12,-76 -6,-11 -16,-21 -30,-28 -15,-8 -39,-11 -71,-11l0 -22 227 0 286 619 283 -619 225 0 0 22 -28 0c-34,0 -59,10 -73,30 -9,13 -13,41 -13,85l0 517c0,49 6,79 17,91 15,16 38,24 69,24l28 0 0 22 -339 0 0 -22 28 0c34,0 58,-10 72,-30 9,-13 13,-41 13,-85l0 -529 -305 666 -19 0z"/>
   <path id="1" class="fil1" d="M6443 761l0 232c0,50 5,81 16,93 15,17 37,26 67,26l30 0 0 22 -339 0 0 -22 30 0c33,0 58,-11 72,-33 8,-12 12,-41 12,-86l0 -513c0,-50 -5,-81 -16,-93 -15,-17 -38,-26 -68,-26l-30 0 0 -22 290 0c71,0 127,7 168,22 41,15 75,39 103,74 28,35 42,76 42,123 0,65 -21,117 -64,158 -43,40 -103,61 -181,61 -19,0 -40,-1 -62,-4 -22,-3 -46,-7 -71,-12zm0 -33c21,4 39,7 55,9 16,2 29,3 41,3 40,0 75,-16 104,-47 29,-31 44,-72 44,-121 0,-34 -7,-66 -21,-95 -14,-29 -34,-51 -59,-66 -26,-15 -55,-22 -87,-22 -20,0 -45,4 -76,11l0 328z"/>
   <path id="2" class="fil1" d="M9098 383l0 311 143 0c33,0 58,-7 73,-22 16,-15 26,-43 31,-87l22 0 0 269 -22 0c0,-31 -4,-53 -12,-68 -8,-15 -18,-25 -32,-32 -14,-7 -33,-11 -60,-11l-143 0 0 250c0,40 3,67 8,79 4,10 12,18 24,25 17,9 35,14 53,14l28 0 0 22 -339 0 0 -22 28 0c33,0 57,-10 71,-28 9,-13 14,-42 14,-90l0 -513c0,-40 -3,-67 -8,-79 -4,-10 -12,-18 -24,-25 -17,-9 -35,-14 -54,-14l-28 0 0 -22 588 0 8 174 -20 0c-10,-37 -22,-65 -35,-82 -14,-17 -30,-30 -50,-38 -20,-8 -50,-12 -91,-12l-174 0z"/>
   <path id="3" class="fil1" d="M3403 618l0 -14 186 0 0 14 -20 0c-21,0 -37,9 -48,26 -5,8 -8,27 -8,56l0 214c0,53 -5,94 -16,123 -10,29 -31,54 -62,75 -31,21 -72,31 -125,31 -57,0 -101,-10 -131,-30 -30,-20 -51,-47 -63,-81 -8,-23 -12,-66 -12,-130l0 -206c0,-32 -5,-54 -13,-64 -9,-10 -23,-15 -43,-15l-20 0 0 -14 228 0 0 14 -20 0c-22,0 -37,7 -47,21 -7,9 -10,29 -10,58l0 230c0,20 2,44 6,70 4,26 11,47 20,62 10,15 24,27 43,37 19,10 41,14 68,14 35,0 65,-8 93,-23 27,-15 46,-34 56,-58 10,-23 15,-63 15,-119l0 -214c0,-33 -4,-53 -11,-62 -10,-11 -25,-17 -45,-17l-20 0z"/>
   <path id="4" class="fil1" d="M3964 592l0 182 -14 0c-5,-35 -13,-63 -25,-84 -12,-21 -29,-37 -52,-49 -22,-12 -45,-18 -69,-18 -27,0 -49,8 -67,25 -18,16 -27,35 -27,56 0,16 6,31 17,44 16,19 54,45 115,78 49,27 83,47 101,61 18,14 32,31 42,50 10,19 15,39 15,60 0,40 -16,74 -46,103 -31,29 -71,43 -120,43 -15,0 -30,-1 -43,-4 -8,-1 -25,-6 -50,-14 -25,-8 -41,-12 -48,-12 -7,0 -12,2 -15,6 -4,4 -7,12 -8,24l-14 0 0 -181 14 0c7,38 16,66 27,85 11,19 29,35 52,47 23,12 49,19 77,19 32,0 58,-9 77,-26 19,-17 28,-38 28,-61 0,-13 -4,-26 -11,-39 -7,-13 -18,-26 -33,-37 -10,-8 -38,-24 -83,-50 -45,-25 -78,-45 -97,-60 -19,-15 -34,-32 -44,-50 -10,-18 -15,-38 -15,-60 0,-38 15,-70 44,-98 29,-27 66,-41 111,-41 28,0 58,7 89,21 15,7 25,10 31,10 7,0 12,-2 17,-6 4,-4 8,-12 10,-24l14 0z"/>
   <path id="5" class="fil1" d="M4287 1118l0 14 -226 0 0 -14 19 0c22,0 38,-6 48,-19 6,-8 9,-28 9,-60l0 -342c0,-27 -2,-44 -5,-53 -3,-7 -8,-12 -16,-17 -11,-6 -23,-9 -36,-9l-19 0 0 -14 226 0 0 14 -19 0c-22,0 -37,6 -47,19 -7,8 -10,28 -10,60l0 342c0,27 2,44 5,53 3,7 8,12 16,17 11,6 23,9 35,9l19 0z"/>
   <path id="6" class="fil1" d="M4786 592l12 179 -12 0c-16,-54 -39,-92 -69,-116 -30,-24 -65,-35 -107,-35 -35,0 -66,9 -95,27 -28,18 -50,46 -67,85 -16,39 -24,87 -24,145 0,48 8,89 23,124 15,35 38,62 69,81 31,19 66,28 105,28 34,0 64,-7 90,-22 26,-15 55,-44 86,-87l12 8c-26,47 -57,81 -92,103 -35,22 -77,33 -125,33 -87,0 -155,-32 -203,-97 -36,-48 -54,-105 -54,-170 0,-53 12,-101 35,-145 24,-44 56,-78 97,-103 41,-24 86,-36 135,-36 38,0 75,9 112,28 11,6 19,9 23,9 7,0 13,-3 18,-7 7,-7 12,-17 14,-29l14 0z"/>
   <path id="7" class="fil1" d="M5202 956l-205 0 -35 83c-9,20 -13,36 -13,46 0,8 4,15 12,21 8,6 24,10 50,12l0 14 -166 0 0 -14c22,-4 36,-9 43,-15 13,-12 28,-38 44,-76l186 -435 13 0 184 439c15,35 28,58 40,69 12,10 29,16 50,18l0 14 -208 0 0 -14c21,-1 35,-5 43,-10 7,-6 11,-13 11,-22 0,-11 -5,-29 -16,-54l-31 -75zm-12 -29l-89 -213 -91 213 180 0z"/>
   <path id="8" class="fil1" d="M5870 986l13 3 -45 143 -409 0 0 -14 20 0c22,0 38,-7 48,-22 5,-8 8,-27 8,-57l0 -342c0,-33 -4,-53 -11,-62 -10,-11 -25,-17 -45,-17l-20 0 0 -14 239 0 0 14c-28,0 -48,2 -59,8 -11,5 -19,12 -23,20 -4,8 -6,28 -6,59l0 333c0,22 2,36 6,44 3,6 8,10 14,12 6,3 27,4 61,4l38 0c41,0 69,-3 85,-9 16,-6 31,-17 45,-32 13,-15 27,-39 40,-72z"/>
   <path id="9" class="fil1" d="M7109 1118l0 14 -226 0 0 -14 19 0c22,0 38,-6 48,-19 6,-8 9,-28 9,-60l0 -342c0,-27 -2,-44 -5,-53 -3,-7 -8,-12 -16,-17 -11,-6 -23,-9 -36,-9l-19 0 0 -14 226 0 0 14 -19 0c-22,0 -37,6 -47,19 -7,8 -10,28 -10,60l0 342c0,27 2,44 5,53 3,7 8,12 16,17 11,6 23,9 35,9l19 0z"/>
   <path id="10" class="fil1" d="M7493 956l-205 0 -35 83c-9,20 -13,36 -13,46 0,8 4,15 12,21 8,6 24,10 50,12l0 14 -166 0 0 -14c22,-4 36,-9 43,-15 13,-12 28,-38 44,-76l186 -435 13 0 184 439c15,35 28,58 40,69 12,10 29,16 50,18l0 14 -208 0 0 -14c21,-1 35,-5 43,-10 7,-6 11,-13 11,-22 0,-11 -5,-29 -16,-54l-31 -75zm-12 -29l-89 -213 -91 213 180 0z"/>
   <path id="11" class="fil1" d="M7692 604l142 0 324 397 0 -305c0,-33 -4,-53 -11,-61 -10,-11 -25,-16 -46,-16l-19 0 0 -14 186 0 0 14 -19 0c-23,0 -39,7 -48,20 -6,8 -9,27 -9,57l0 445 -14 0 -348 -425 0 325c0,33 4,53 11,61 10,11 25,16 46,16l19 0 0 14 -186 0 0 -14 19 0c23,0 39,-7 48,-20 6,-8 9,-27 9,-57l0 -367c-15,-18 -27,-30 -35,-35 -8,-6 -20,-11 -35,-16 -8,-2 -19,-3 -34,-3l0 -14z"/>
   <path id="12" class="fil1" d="M8569 592c68,0 128,26 178,78 50,52 75,117 75,195 0,80 -25,147 -76,200 -50,53 -112,79 -183,79 -72,0 -133,-26 -183,-78 -49,-52 -74,-118 -74,-200 0,-84 29,-152 85,-205 50,-46 109,-69 178,-69zm-7 28c-47,0 -85,18 -113,53 -35,44 -53,108 -53,192 0,86 18,153 55,199 28,35 65,53 112,53 50,0 90,-19 123,-58 32,-39 48,-100 48,-183 0,-90 -18,-158 -53,-202 -28,-35 -68,-53 -118,-53z"/>
   <path id="13" class="fil1" d="M9809 592c68,0 128,26 178,78 50,52 75,117 75,195 0,80 -25,147 -76,200 -50,53 -112,79 -183,79 -72,0 -133,-26 -183,-78 -49,-52 -74,-118 -74,-200 0,-84 29,-152 85,-205 50,-46 109,-69 178,-69zm-7 28c-47,0 -85,18 -113,53 -35,44 -53,108 -53,192 0,86 18,153 55,199 28,35 65,53 112,53 50,0 90,-19 123,-58 32,-39 48,-100 48,-183 0,-90 -18,-158 -53,-202 -28,-35 -68,-53 -118,-53z"/>
   <path id="14" class="fil1" d="M10632 1132l-141 0 -179 -247c-13,1 -23,1 -31,1 -3,0 -7,0 -11,0 -4,0 -8,0 -12,-1l0 154c0,33 4,54 11,62 10,11 25,17 44,17l21 0 0 14 -226 0 0 -14 20 0c22,0 38,-7 48,-22 5,-8 8,-27 8,-57l0 -342c0,-33 -4,-54 -11,-62 -10,-11 -25,-17 -45,-17l-20 0 0 -14 192 0c56,0 97,4 124,12 27,8 49,23 68,45 19,22 28,48 28,78 0,33 -11,61 -32,85 -21,24 -54,41 -98,51l109 151c25,35 46,58 64,69 18,12 41,19 70,22l0 14zm-375 -272c5,0 9,0 13,0 4,0 7,0 9,0 50,0 87,-11 113,-33 25,-22 38,-50 38,-83 0,-33 -10,-60 -31,-80 -20,-21 -48,-31 -81,-31 -15,0 -35,2 -60,7l0 220z"/>
   <path id="15" class="fil1" d="M11038 604l6 124 -15 0c-3,-22 -7,-37 -12,-47 -8,-15 -19,-26 -32,-33 -13,-7 -31,-11 -53,-11l-74 0 0 403c0,33 3,53 10,61 10,11 25,16 45,16l18 0 0 14 -225 0 0 -14 19 0c23,0 38,-7 48,-20 6,-8 9,-27 9,-57l0 -403 -63 0c-25,0 -42,2 -53,5 -14,5 -25,14 -35,28 -10,14 -15,33 -17,57l-15 0 6 -124 432 0z"/>
   <path id="16" class="fil1" d="M11230 633l0 209 116 0c30,0 50,-5 60,-14 14,-12 21,-33 23,-63l14 0 0 184 -14 0c-4,-26 -7,-42 -11,-50 -5,-9 -12,-16 -23,-21 -11,-5 -27,-8 -49,-8l-116 0 0 174c0,23 1,38 3,43 2,5 6,9 11,12 5,3 15,5 30,5l89 0c30,0 51,-2 65,-6 13,-4 26,-12 39,-25 16,-16 33,-40 49,-73l16 0 -46 132 -407 0 0 -14 19 0c12,0 24,-3 35,-9 8,-4 14,-10 17,-19 3,-8 5,-25 5,-51l0 -343c0,-33 -3,-54 -10,-62 -9,-10 -25,-16 -47,-16l-19 0 0 -14 407 0 6 116 -15 0c-5,-28 -11,-47 -18,-58 -7,-10 -16,-18 -29,-24 -10,-4 -29,-6 -55,-6l-145 0z"/>
   <path class="fil0 str0" d="M12238 888l223 39 816 -112m-986 479c40,0 113,9 120,-40 8,-61 -4,-88 34,-121 16,-14 59,-36 75,-43 51,-24 41,-149 -16,-168m-218 372c48,9 31,-112 82,-150 31,-23 79,-39 113,-57 57,-29 38,-155 -2,-162l-18 2 -19 -3c-23,6 -28,45 -23,68 5,25 11,46 43,44 7,-1 19,-17 21,-33 2,-38 -20,-48 -31,-46 -8,1 -11,9 -13,14 -7,25 29,49 25,39 -2,-6 -12,-8 -15,-23 -1,-8 0,-18 6,-20 12,-3 23,39 13,49 -6,6 -15,3 -21,-3 -14,-12 -22,-39 -15,-57 3,-8 26,-24 40,-11 40,35 7,96 -6,105 -26,19 -65,27 -100,36 -92,25 -123,200 -83,208zm200 -558l30 9 0 58m-30 -79l59 17 0 58m-59 -89l87 28 0 57m-89 -102l118 41 0 57m-112 -111l141 51 0 59m-121 -112l149 50 0 57m-126 -109l155 49 0 57m-129 -109l158 49 0 57m-130 -108l158 48 0 56m-129 -108l157 48 0 56m-129 -108l158 48 0 56m-127 -108l156 48 0 56m-126 -108l154 48 0 56m-127 -107l155 48 0 56m-127 -107l156 47 0 56m-127 -107l155 47 0 56m-126 -107l154 47 0 56m-127 -106l155 47 0 55m-124 -105l153 47 0 55m-125 -104l153 47 0 55m-126 -104l154 46 0 56m-124 -106l153 46 0 56m-125 -105l153 46 0 56m-125 -105l153 46 0 56m-124 -105l153 46 0 55m-124 -103l152 46 0 55m-124 -103l152 45 0 55m-123 -103l151 45 0 55m-161 -296c9,66 -5,90 39,124 181,27 179,15 178,165m-1062 -209c9,66 -8,80 44,119 181,27 166,7 162,195m677 -201l151 45 0 55m-829 -25l701 -77 156 44m-443 -246c50,-3 100,-5 150,-8 0,-54 0,-109 0,-163 -50,4 -100,9 -150,13 0,53 0,105 0,158zm-1021 -239l0 -25 22 -12 1 -13c356,-13 713,-32 1069,-46l247 19 0 11 20 13 0 18 -58 20 0 24c-13,0 -32,0 -45,0 1,73 2,146 3,218l8 20c0,73 6,99 34,118 72,12 87,1 142,24 46,19 35,108 36,146l11 2 0 12 -26 15 25 16 0 18 -24 12 24 12 0 18 -84 10c23,48 51,135 -41,173 -5,3 -29,12 -49,19 -51,17 2,114 -50,153l0 19 19 8 -1 64 -920 167 -269 -75 0 -72 18 -2 -2 -1062 -42 0 2 -33 -68 -11zm23 -50c97,10 195,13 293,23 344,-14 688,-29 1031,-43m-1278 82l258 16 973 -42m-1191 1120c85,25 168,44 253,70 306,-51 612,-102 918,-153m-846 141c-22,-8 -45,-17 -67,-25 -3,-18 -5,-35 -8,-53 3,-341 5,-682 8,-1024 -13,1 -26,2 -39,3 -1,-12 -1,-25 -2,-37m39 306c300,-29 600,-57 899,-86m-885 84c9,66 -3,83 48,122 181,27 162,5 158,192 -74,-12 -149,-16 -223,-29m223 29c299,-39 592,-70 891,-110m-868 48c295,-35 573,-67 868,-102m-1154 -336c-50,0 -100,0 -150,0 1,99 2,198 3,297 46,3 93,5 139,8 3,-102 5,-203 8,-305zm-5 484c-50,0 -100,0 -150,0 1,131 2,261 3,392 46,3 93,7 139,10 3,-134 5,-268 8,-403zm111 -345c50,-3 100,-5 150,-8 0,-54 0,-109 0,-163 -50,4 -100,9 -150,13 0,53 0,105 0,158zm234 -13c0,-55 0,-111 0,-166 96,-7 193,-14 289,-21 0,53 0,105 0,158 -96,10 -193,19 -289,29zm510 728l90 -5m-102 6c4,1 8,1 11,0 0,0 1,0 1,0 34,-12 24,-115 70,-150 31,-23 79,-39 113,-57 57,-29 38,-130 -2,-138l-25 4c-48,17 -48,112 9,107 7,-1 19,-17 21,-33 2,-38 -20,-48 -31,-46 -8,1 -11,9 -13,14 -7,25 29,49 25,39 -2,-6 -12,-8 -15,-23 -1,-8 0,-18 6,-20 12,-3 23,39 13,49 -6,6 -15,3 -21,-3 -14,-12 -22,-39 -15,-57 3,-8 32,-28 40,-11 57,115 -70,107 -105,117 -92,25 -123,200 -83,208z"/>
  </g>
 </g>
</svg>
