<?xml version="1.0" encoding="UTF-8"?>
<!DOCTYPE svg PUBLIC "-//W3C//DTD SVG 1.1//EN" "http://www.w3.org/Graphics/SVG/1.1/DTD/svg11.dtd">
<!-- Creator: CorelDRAW X6 -->
<svg xmlns="http://www.w3.org/2000/svg" xml:space="preserve" width="1.66666in" height="1.01168in" version="1.1" style="shape-rendering:geometricPrecision; text-rendering:geometricPrecision; image-rendering:optimizeQuality; fill-rule:evenodd; clip-rule:evenodd"
viewBox="0 0 1554 943"
 xmlns:xlink="http://www.w3.org/1999/xlink">
 <defs>
  <style type="text/css">
   <![CDATA[
    .fil1 {fill:#3F3B3A}
    .fil0 {fill:#504E4D}
    .fil3 {fill:#FEFEFE;fill-rule:nonzero}
    .fil2 {fill:#FEFEFE;fill-rule:nonzero}
   ]]>
  </style>
 </defs>
 <g id="Capa_x0020_1">
  <metadata id="CorelCorpID_0Corel-Layer"/>
  <g id="_397590984">
   <g>
    <path class="fil0" d="M6 346l126 276c87,-11 1250,-336 1267,-349 -11,-36 -123,-238 -147,-273l-624 171c-140,41 -532,139 -623,175z"/>
    <path class="fil1" d="M160 667c5,33 109,252 129,276l1265 -342c-28,-64 -115,-234 -153,-276l-1241 341z"/>
    <path class="fil1" d="M0 316c64,-12 200,-48 254,-69 42,-16 43,-54 56,-100 13,-42 27,-81 36,-126 -60,21 -102,68 -159,98 -53,-25 -68,-78 -118,-101l-70 297z"/>
    <path class="fil1" d="M1275 706l-62 219c57,-23 106,-72 160,-103 48,31 70,77 122,98l59 -287 -279 73z"/>
    <path class="fil2" d="M322 424c-1,3 -3,6 -6,8 -2,2 -5,4 -8,4 -6,2 -11,1 -15,-4 -3,-4 -5,-11 -5,-21 0,-19 6,-38 18,-55 12,-17 26,-28 43,-33 12,-3 21,-3 27,1 7,4 10,11 10,21 0,6 -1,13 -3,23 -2,10 -5,22 -10,37 18,-38 34,-64 46,-81 12,-16 25,-26 37,-30 7,-2 13,-1 17,2 4,3 6,9 6,17 0,10 -6,31 -19,62l-3 7c21,-38 39,-66 53,-84 14,-18 28,-28 39,-32 7,-2 12,-1 16,2 4,3 6,8 6,16 0,10 -7,33 -20,69l-3 9 -2 5c-14,36 -20,57 -20,63 0,6 2,9 6,11 4,1 10,1 18,-1l-5 18 -4 1c-16,4 -28,5 -35,2 -7,-3 -11,-11 -11,-22 0,-10 8,-36 24,-78 3,-9 6,-16 8,-20l1 -3c7,-19 11,-30 11,-34 0,-2 -1,-3 -2,-4 -1,-1 -2,-1 -4,-1 -6,2 -18,15 -35,40 -17,25 -32,53 -46,84 -4,10 -8,19 -12,29 -4,10 -8,20 -11,30 -1,4 -3,7 -5,8 -2,2 -5,3 -10,4 -7,2 -12,3 -15,2 -3,0 -5,-2 -5,-4 0,-1 3,-10 9,-24 5,-12 9,-22 12,-30 11,-29 20,-53 27,-72 6,-19 10,-31 10,-35 0,-3 -1,-4 -2,-6 -1,-1 -3,-2 -5,-1 -8,2 -19,14 -32,36 -14,22 -27,49 -40,80 -5,12 -10,25 -15,39 -5,14 -8,22 -8,24 -2,4 -3,7 -5,8 -2,1 -6,3 -11,4 -6,2 -10,2 -13,2 -3,0 -5,-2 -5,-4 0,-2 3,-11 9,-27 6,-16 11,-30 15,-41 6,-18 11,-35 15,-51 4,-16 6,-27 6,-34 0,-6 -1,-9 -4,-12 -3,-2 -7,-3 -12,-1 -8,2 -16,9 -22,19 -6,10 -9,21 -9,33 0,5 1,9 2,13 2,4 4,6 7,7z"/>
    <path id="1" class="fil2" d="M536 464l5 -18c5,-2 9,-4 14,-6 4,-3 9,-6 13,-9 0,-1 0,-1 0,-2 0,-1 0,-1 0,-3 0,-8 4,-26 13,-53 2,-5 3,-9 4,-12 1,-3 2,-6 3,-10 4,-14 8,-22 12,-23 6,-2 11,-2 16,-1 5,1 8,2 8,4 0,1 -2,6 -6,15 -4,9 -7,18 -10,26 -5,14 -9,24 -11,31 -2,7 -3,12 -3,15 0,3 1,4 2,5 1,1 3,1 5,0 5,-2 12,-8 19,-19 7,-11 14,-25 20,-42 4,-9 7,-20 10,-32 3,-12 8,-19 13,-21 5,-1 10,-2 14,-1 4,1 6,2 6,5 0,1 -2,6 -6,15 -4,9 -7,18 -10,26 -4,11 -7,21 -9,28 -2,8 -3,13 -3,18 0,4 1,7 3,8 2,1 6,1 13,-1l-5 18 -2 1c-12,3 -20,4 -24,3 -4,-1 -7,-6 -7,-12 0,-3 0,-6 1,-11 1,-4 2,-10 4,-17 -12,21 -22,36 -29,43 -7,8 -14,13 -22,15 -5,1 -9,2 -13,1 -3,-1 -6,-3 -7,-6 -5,5 -10,8 -15,11 -5,3 -11,6 -19,8z"/>
    <path id="2" class="fil2" d="M706 386c3,0 6,1 8,3 2,2 4,4 5,7 8,-4 14,-9 18,-16 4,-7 7,-16 7,-25 0,-4 0,-7 -1,-11 -1,-4 -2,-8 -3,-13 -3,8 -8,17 -13,26 -6,10 -12,19 -20,29zm-48 44l5 -18c8,-3 18,-13 30,-30 13,-17 26,-39 39,-66 -2,-1 -3,-3 -3,-4 -1,-2 -1,-4 -1,-6 0,-6 2,-12 7,-18 5,-6 11,-10 17,-12 4,-1 7,-1 10,1 2,1 4,4 4,8 0,3 -1,7 -3,11 -2,4 -5,8 -9,13 7,6 12,12 15,18 3,6 5,12 5,19 0,6 -1,13 -3,20 -2,7 -5,13 -9,18 2,0 4,1 6,0 2,0 5,-1 9,-2l3 -1 -5 18 -4 1c-5,1 -9,2 -13,2 -4,0 -8,0 -12,-1 -5,3 -10,6 -14,8 -5,2 -9,4 -13,5 -6,2 -12,2 -18,2 -6,-1 -10,-2 -14,-5 -4,4 -8,8 -13,11 -5,3 -10,6 -15,8z"/>
    <path id="3" class="fil2" d="M764 401l5 -18c10,-3 18,-10 24,-23 7,-12 13,-31 19,-56 1,-4 2,-9 3,-15 2,-13 10,-21 24,-25 3,-1 6,-1 7,-1 2,0 2,2 2,3 0,2 -1,8 -4,15 -3,8 -5,14 -6,18l-12 38 0 2c-3,9 -4,15 -4,18 0,3 1,5 3,6 2,1 7,0 14,-1l-5 18 -4 1c-10,3 -18,4 -24,2 -5,-1 -8,-5 -9,-11 -5,7 -10,12 -15,17 -6,4 -12,8 -19,10zm82 -175c-5,1 -8,1 -11,-1 -3,-2 -4,-5 -4,-10 0,-6 2,-12 6,-17 4,-5 8,-9 14,-10 4,-1 8,-1 11,1 3,2 4,5 4,10 0,6 -2,12 -6,17 -4,5 -8,8 -14,10z"/>
    <path id="4" class="fil2" d="M825 384l5 -18c5,-2 10,-4 14,-6 4,-2 8,-5 12,-9 -2,-3 -3,-6 -4,-10 -1,-4 -1,-8 -1,-14 0,-18 6,-35 19,-52 13,-17 27,-27 43,-32 8,-2 15,-2 20,0 5,3 7,7 7,13 0,4 -1,8 -4,12 -2,3 -5,6 -9,7 -1,0 -2,0 -3,0 -1,0 -1,-1 -1,-3 0,-4 -1,-6 -3,-8 -2,-1 -4,-1 -8,0 -8,2 -16,9 -22,19 -7,11 -10,22 -10,33 0,12 4,19 11,22 7,3 19,3 35,-1l-5 18c-1,0 -3,1 -4,2 0,0 0,0 -1,0 -11,3 -21,5 -29,5 -8,0 -15,-1 -21,-4 -6,6 -12,10 -19,14 -7,4 -15,7 -23,10z"/>
    <path id="5" class="fil2" d="M1029 237c-2,-1 -4,-2 -7,-2 -2,0 -4,0 -7,1 -5,1 -10,5 -16,11 -6,6 -12,13 -18,22 -5,8 -9,16 -12,24 -3,8 -5,15 -5,21 0,4 1,7 2,8 1,2 3,2 6,1 8,-2 17,-11 26,-25 9,-14 19,-35 30,-60zm-12 49c-9,18 -17,31 -26,41 -8,9 -18,16 -27,18 -5,1 -9,2 -12,1 -3,0 -6,-1 -8,-3 -4,3 -9,6 -14,9 -5,3 -11,5 -18,7l5 -18c4,-1 8,-3 12,-5 4,-2 7,-4 10,-6 0,-2 -1,-3 -1,-5 0,-2 0,-4 0,-6 0,-7 1,-14 4,-23 3,-9 7,-18 12,-27 8,-14 17,-25 27,-34 10,-9 20,-15 31,-18 5,-1 10,-2 14,-1 4,0 7,2 11,4l2 -6c1,-4 2,-6 3,-7 1,-1 3,-2 5,-3 6,-2 10,-2 15,-1 4,1 6,2 6,5 0,1 -2,5 -5,13 -3,8 -7,15 -9,22 -5,14 -9,25 -12,35 -3,9 -4,16 -4,21 0,3 1,5 3,6 2,1 7,0 14,-1l-5 18 -2 1c-13,4 -22,5 -27,3 -5,-1 -8,-5 -8,-11 0,-3 0,-6 1,-11 1,-4 3,-10 5,-17z"/>
    <path id="6" class="fil2" d="M1037 325l5 -18c4,-1 9,-4 14,-7 5,-4 10,-9 16,-16 3,-19 6,-39 11,-60 5,-21 10,-42 17,-63 5,-17 10,-30 15,-37 5,-7 10,-12 16,-13 4,-1 7,0 10,2 3,3 4,6 4,11 0,6 -2,15 -7,26 -5,11 -11,23 -19,35 -6,22 -11,41 -15,59 -4,18 -6,29 -6,35 0,4 1,7 3,9 2,1 6,1 11,0l-5 18 -3 1c-9,3 -16,3 -21,2 -5,-1 -8,-4 -10,-9 -5,6 -11,12 -17,16 -6,4 -12,8 -19,10z"/>
    <path class="fil2" d="M407 792c-9,34 -18,59 -27,75 -9,16 -21,26 -33,29 -9,3 -17,1 -22,-6 -5,-6 -8,-17 -8,-30 0,-18 4,-40 12,-66 8,-26 19,-51 33,-75 13,-23 27,-41 41,-55 15,-14 30,-23 45,-27 15,-4 27,-3 35,5 9,7 13,19 13,36 0,9 -1,19 -4,29 -3,10 -6,21 -11,32 -6,14 -14,25 -23,34 -9,9 -19,15 -30,18 -2,1 -5,1 -9,2 -3,0 -7,1 -12,1zm4 -21c1,0 2,0 2,0 1,0 2,0 3,-1 12,-3 23,-13 32,-30 9,-16 14,-34 14,-54 0,-10 -2,-17 -5,-21 -3,-4 -9,-5 -15,-3 -7,2 -15,7 -24,16 -9,9 -18,20 -26,32 -6,10 -12,20 -17,32 -5,12 -10,25 -15,38 -5,15 -9,29 -12,41 -3,12 -4,22 -4,28 0,5 1,9 2,11 1,2 3,3 6,2 7,-2 13,-14 20,-35 6,-22 11,-49 13,-82 0,-1 0,-2 0,-3 1,-8 2,-13 4,-15 3,-3 6,-7 11,-11 5,-4 8,-6 10,-6 2,-1 4,0 4,2 1,2 1,7 1,16l0 4c0,6 0,13 -1,19 0,7 -1,13 -2,20z"/>
    <path id="1" class="fil2" d="M456 824l5 -18c10,-3 18,-10 24,-23 7,-12 13,-31 19,-56 1,-4 2,-9 3,-15 2,-13 10,-21 24,-25 3,-1 6,-1 7,-1 2,0 2,2 2,3 0,2 -1,8 -4,15 -3,8 -5,14 -6,18l-12 38 0 2c-3,9 -4,15 -4,18 0,3 1,5 3,6 2,1 7,0 14,-1l-5 18 -4 1c-10,3 -18,4 -24,2 -5,-1 -8,-5 -9,-11 -5,7 -10,12 -15,17 -6,4 -12,8 -19,10zm82 -175c-5,1 -8,1 -11,-1 -3,-2 -4,-5 -4,-10 0,-6 2,-12 6,-17 4,-5 8,-9 14,-10 4,-1 8,-1 11,1 3,2 4,5 4,10 0,6 -2,12 -6,17 -4,5 -8,8 -14,10z"/>
    <path id="2" class="fil2" d="M635 684c-2,-1 -4,-2 -7,-2 -2,0 -4,0 -7,1 -5,1 -10,5 -16,11 -6,6 -12,13 -18,22 -5,8 -9,16 -12,24 -3,8 -5,15 -5,21 0,4 1,7 2,8 1,2 3,2 6,1 8,-2 17,-11 26,-25 9,-14 19,-35 30,-60zm-12 49c-9,18 -17,31 -26,41 -8,9 -18,16 -27,18 -5,1 -9,2 -12,1 -3,0 -6,-1 -8,-3 -4,3 -9,6 -14,9 -5,3 -11,5 -18,7l5 -18c4,-1 8,-3 12,-5 4,-2 7,-4 10,-6 0,-2 -1,-3 -1,-5 0,-2 0,-4 0,-6 0,-7 1,-14 4,-23 3,-9 7,-18 12,-27 8,-14 17,-25 27,-34 10,-9 20,-15 31,-18 5,-1 10,-2 14,-1 4,0 7,2 11,4l2 -6c1,-4 2,-6 3,-7 1,-1 3,-2 5,-3 6,-2 10,-2 15,-1 4,1 6,2 6,5 0,1 -2,5 -5,13 -3,8 -7,15 -9,22 -5,14 -9,25 -12,35 -3,9 -4,16 -4,21 0,3 1,5 3,6 2,1 7,0 14,-1l-5 18 -2 1c-13,4 -22,5 -27,3 -5,-1 -8,-5 -8,-11 0,-3 0,-6 1,-11 1,-4 3,-10 5,-17z"/>
    <path id="3" class="fil2" d="M671 752c-4,5 -8,9 -12,12 -5,3 -10,6 -16,8l5 -18c8,-3 16,-9 22,-18 6,-9 11,-23 16,-41 2,-9 5,-19 7,-31 3,-16 8,-25 15,-27 6,-2 11,-3 14,-3 3,0 4,1 4,3 0,1 -3,9 -8,23 -5,14 -9,27 -13,40 13,-24 24,-42 35,-54 10,-12 21,-20 31,-23 5,-1 9,-1 12,1 3,2 4,5 4,10 0,6 -5,21 -14,47l-3 8c-2,5 -4,11 -5,15 -1,5 -2,8 -2,10 0,3 1,5 3,5 2,1 7,0 13,-1l-5 18 -3 1c-13,4 -23,5 -29,3 -6,-2 -9,-7 -9,-14 0,-3 1,-9 4,-17 2,-8 6,-18 11,-31l1 -3c4,-10 6,-17 6,-18 0,-1 0,-2 -1,-3 -1,0 -2,0 -3,0 -5,1 -12,9 -22,24 -10,15 -19,32 -26,51 -2,4 -3,9 -5,14 -3,10 -10,17 -20,19 -3,1 -6,1 -7,1 -1,0 -2,-1 -2,-3 0,-1 0,-2 1,-3 0,-1 1,-3 2,-6z"/>
    <path id="4" class="fil2" d="M864 636c-4,0 -7,0 -9,-2 -2,-2 -3,-5 -3,-9 0,-6 2,-11 5,-16 3,-5 7,-8 12,-9 5,-2 10,0 13,3 3,4 5,9 5,17 0,10 -2,20 -5,31 -3,11 -7,22 -13,32 -6,11 -12,19 -19,26 -7,6 -14,11 -22,13 -6,2 -11,2 -15,2 -4,0 -8,-2 -11,-4 -5,4 -11,8 -17,11 -6,3 -12,6 -19,8l5 -18c4,-1 8,-3 12,-5 4,-2 7,-4 10,-6 -1,-2 -2,-5 -2,-8 0,-3 -1,-6 -1,-9 0,-9 2,-19 6,-29 4,-11 9,-21 15,-30 6,-8 12,-15 20,-22 8,-6 15,-10 22,-12 2,0 3,0 4,0 1,0 1,1 1,3 0,2 -2,5 -6,10 -4,5 -7,9 -9,12 -8,13 -15,25 -19,37 -4,12 -7,23 -7,32 0,4 1,8 3,10 2,2 5,2 8,2 8,-2 16,-11 24,-25 8,-14 12,-29 12,-44z"/>
    <path id="5" class="fil2" d="M991 585l22 -72c-9,-1 -17,-1 -24,-1 -7,0 -13,1 -18,3 -7,2 -13,5 -17,8 -4,4 -6,8 -6,12 0,1 0,2 0,4 0,1 0,1 0,2 -1,1 -2,2 -3,3 -1,1 -2,1 -3,2 -4,1 -7,0 -9,-2 -2,-2 -3,-5 -3,-9 0,-10 4,-19 12,-27 8,-8 19,-14 32,-18 11,-3 23,-5 36,-5 13,-1 25,0 39,2 -6,21 -12,39 -16,53 -4,15 -8,27 -12,39 2,0 5,0 8,-1 13,-1 20,0 20,4 0,1 0,2 -1,5 0,1 -1,3 -1,4l-7 28 0 0c-1,4 -5,7 -10,9 -3,1 -5,1 -6,1 -1,0 -2,-1 -2,-2 0,0 0,-1 0,-2 0,0 0,-1 0,-1l5 -22c-2,0 -4,0 -6,0 -2,0 -5,1 -8,1 -12,42 -26,73 -40,94 -15,21 -33,34 -55,40 -12,3 -23,3 -31,0 -8,-4 -12,-10 -12,-18 0,-5 1,-9 4,-13 3,-4 7,-7 11,-8l0 0c1,7 4,11 8,14 4,2 10,3 18,1 15,-4 28,-14 38,-29 10,-15 20,-40 29,-74 -7,2 -14,5 -22,9 -7,4 -11,6 -12,6 0,0 -1,0 -1,0 0,0 -1,-1 -1,-2l0 -1 3 -15c1,-3 4,-7 10,-10 6,-3 16,-7 31,-11z"/>
    <path id="6" class="fil2" d="M1133 561c-4,0 -7,0 -9,-2 -2,-2 -3,-5 -3,-9 0,-6 2,-11 5,-16 3,-5 7,-8 12,-9 5,-2 10,0 13,3 3,4 5,9 5,17 0,10 -2,20 -5,31 -3,11 -7,22 -13,32 -6,11 -12,19 -19,26 -7,6 -14,11 -22,13 -6,2 -11,2 -15,2 -4,0 -8,-2 -11,-4 -5,4 -11,8 -17,11 -6,3 -12,6 -19,8l5 -18c4,-1 8,-3 12,-5 4,-2 7,-4 10,-6 -1,-2 -2,-5 -2,-8 0,-3 -1,-6 -1,-9 0,-9 2,-19 6,-29 4,-11 9,-21 15,-30 6,-8 12,-15 20,-22 8,-6 15,-10 22,-12 2,0 3,0 4,0 1,0 1,1 1,3 0,2 -2,5 -6,10 -4,5 -7,9 -9,12 -8,13 -15,25 -19,37 -4,12 -7,23 -7,32 0,4 1,8 3,10 2,2 5,2 8,2 8,-2 16,-11 24,-25 8,-14 12,-29 12,-44z"/>
    <path id="7" class="fil2" d="M1135 636l5 -18c10,-4 19,-14 28,-28 8,-14 18,-38 29,-70 -2,-1 -3,-3 -4,-5 -1,-2 -1,-4 -1,-7 0,-6 2,-11 5,-16 3,-5 7,-8 12,-9 4,-1 8,-1 11,1 3,2 4,5 4,9 0,2 0,4 -1,6 0,2 -1,4 -2,6 4,1 9,3 16,5 12,3 18,8 18,14 0,5 -3,16 -10,31 -6,15 -10,25 -10,30 0,3 1,5 3,5 2,1 8,0 17,-2l-5 18 -4 1c-15,4 -25,5 -31,4 -6,-2 -10,-6 -10,-14 0,-7 3,-18 9,-32 6,-15 9,-24 9,-28 0,-2 -1,-3 -3,-5 -2,-1 -6,-3 -11,-4 -11,34 -22,60 -34,77 -12,17 -25,28 -41,33z"/>
    <path id="8" class="fil2" d="M1240 607l5 -18c9,-3 16,-8 21,-15 5,-7 10,-17 13,-32l10 -39 -12 3c-2,0 -3,1 -4,0 -1,0 -1,-1 -1,-2 0,0 0,0 0,-1 0,0 0,-1 0,-2l2 -6c0,-2 1,-3 2,-4 1,-1 3,-2 7,-3l9 -2 12 -43c1,-2 1,-5 2,-9 2,-11 7,-18 15,-20 5,-1 9,-2 13,-1 3,1 4,2 4,4 0,2 -1,5 -3,10 -1,3 -2,5 -2,6l-14 45 20 -6c2,0 3,-1 4,0 1,0 1,1 1,2 0,0 0,1 0,1 0,0 0,1 0,1l-2 6c0,2 -1,3 -3,4 -1,1 -4,2 -7,3l-18 5 -12 43c-1,5 -2,9 -3,12 -1,3 -1,6 -1,8 0,5 2,8 7,9 4,1 11,1 20,-1l-5 18 -3 1c-11,3 -20,4 -27,4 -7,-1 -13,-3 -16,-7 -5,6 -11,11 -17,15 -6,4 -13,8 -19,10z"/>
    <path id="9" class="fil2" d="M1373 533c8,-8 15,-17 21,-28 6,-11 9,-20 9,-27 0,-3 -1,-6 -3,-7 -2,-1 -4,-2 -7,-1 -7,2 -13,7 -18,17 -5,9 -8,19 -8,30 0,4 0,7 1,10 1,3 2,5 4,7zm-13 29c-8,6 -16,11 -24,15 -8,4 -16,8 -24,10l5 -18c6,-2 11,-4 15,-7 5,-2 9,-5 14,-8 -3,-3 -5,-7 -7,-12 -1,-5 -2,-11 -2,-18 0,-16 6,-32 17,-47 11,-15 24,-25 39,-29 8,-2 15,-2 20,2 5,4 7,10 7,19 0,10 -4,21 -11,35 -7,13 -16,26 -28,38 3,2 7,3 11,4 4,0 9,0 15,-2l2 0 -5 18 -3 1c-9,2 -17,4 -24,4 -7,0 -13,-2 -18,-4z"/>
   </g>
   <path class="fil3" d="M722 852l11 0c6,0 10,1 13,2 8,3 14,7 19,14 2,3 3,5 3,6 2,4 3,9 3,14 0,9 -3,17 -9,24 -2,2 -4,4 -5,5 -3,2 -5,3 -7,4 -2,1 -5,2 -7,2 -2,1 -5,1 -10,1l-11 0c-2,0 -4,-1 -5,-3 0,-1 0,-1 0,-2l0 -62c0,-2 1,-4 3,-5 1,0 1,0 2,0zm4 13l0 46c0,2 1,3 2,4 1,0 1,0 2,0l5 0c9,0 16,-3 21,-10 3,-4 5,-8 6,-13 0,-1 0,-3 0,-4l0 -1c0,-6 -2,-11 -6,-16 -2,-2 -4,-4 -6,-6 -5,-4 -10,-5 -17,-5l-5 0c-2,0 -3,1 -4,3 0,0 0,1 0,2z"/>
   <path id="1" class="fil3" d="M800 873c7,0 13,3 19,8 2,2 3,4 3,5 0,0 0,0 0,1 0,1 -1,2 -1,3 -1,0 -9,6 -25,18 0,0 -1,1 -4,3 0,0 -1,1 -1,1l0 0c0,1 0,1 1,2 3,1 5,2 8,2l1 0c4,0 8,-1 11,-4 2,-2 3,-3 3,-4 1,-1 1,-2 2,-4 0,-2 1,-3 1,-3 1,-1 2,-1 3,-1 2,0 3,1 4,3 0,0 0,1 0,1l0 0c0,1 -1,3 -2,6 -1,2 -2,3 -3,6 -2,2 -3,3 -4,4 -2,2 -4,3 -6,3 -3,1 -6,2 -9,2l-1 0c-5,0 -10,-2 -15,-5 -2,-2 -4,-4 -6,-6 -1,-2 -2,-3 -3,-5 -1,-4 -2,-7 -2,-10 0,-6 2,-12 6,-17 2,-2 3,-3 4,-4 5,-3 10,-5 16,-5zm-17 26c0,2 0,4 1,4 0,0 1,1 2,1 0,0 1,-1 3,-2 0,0 7,-5 20,-14 1,0 1,-1 1,-2l0 0c0,-1 0,-1 -1,-2 -3,-1 -5,-2 -8,-2l-1 0c-4,0 -8,2 -11,5 -4,4 -5,8 -5,12z"/>
   <path id="2" class="fil3" d="M844 873c2,0 4,1 7,2 3,2 5,4 5,6 0,2 -1,3 -2,4 -1,0 -1,1 -2,1 -1,0 -2,-1 -3,-2 -1,-1 -2,-2 -3,-2l0 0c-2,0 -3,1 -3,2 0,1 0,1 0,1 0,2 1,3 3,4 7,4 10,7 11,7 1,1 2,2 3,3 2,3 3,6 3,9 0,5 -2,10 -6,13 -3,2 -6,3 -9,3 -3,0 -6,-1 -9,-3 -2,-1 -3,-3 -4,-5 -1,-2 -1,-3 -1,-4l0 0c0,-1 1,-2 2,-3 1,-1 2,-1 2,-1 2,0 3,1 4,2 0,1 1,2 1,2 2,2 3,3 5,3 2,0 4,-1 6,-3 1,-1 1,-3 1,-4 0,-3 -2,-5 -5,-7 -6,-4 -10,-7 -10,-7 -3,-3 -5,-6 -5,-10 0,-3 1,-6 4,-9 3,-3 6,-4 9,-4z"/>
   <path id="3" class="fil3" d="M911 852l0 0c2,0 3,1 4,3 0,1 0,1 0,2l0 64c0,2 -1,3 -3,4 -1,0 -1,0 -2,0 -2,0 -3,-1 -4,-3 0,-1 -1,-2 -2,-2l0 0c0,0 -1,0 -2,1 -4,3 -9,4 -13,4l-1 0c-5,0 -10,-2 -15,-5 -3,-2 -5,-4 -6,-6 -3,-4 -5,-9 -5,-15 0,-5 2,-10 5,-15 2,-3 5,-5 7,-6 2,-1 4,-3 8,-4 2,-1 5,-1 7,-1 5,0 9,1 14,4 0,0 1,0 1,0 1,0 2,-1 2,-2 0,0 0,0 0,-1l0 -18c0,-2 1,-4 3,-5 1,0 1,0 2,0zm-38 46l0 1c0,5 2,9 6,12 4,3 7,4 11,4l1 0c4,0 7,-1 11,-4 2,-1 3,-3 3,-4 2,-3 3,-6 3,-9l0 -1c0,-5 -2,-9 -6,-12 -4,-3 -7,-5 -11,-5l-1 0c-4,0 -7,1 -11,4 -1,1 -3,3 -3,4 -2,3 -3,6 -3,9z"/>
   <path id="4" class="fil3" d="M945 873c7,0 13,3 19,8 2,2 3,4 3,5 0,0 0,0 0,1 0,1 -1,2 -1,3 -1,0 -9,6 -25,18 0,0 -1,1 -4,3 0,0 -1,1 -1,1l0 0c0,1 0,1 1,2 3,1 5,2 8,2l1 0c4,0 8,-1 11,-4 2,-2 3,-3 3,-4 1,-1 1,-2 2,-4 0,-2 1,-3 1,-3 1,-1 2,-1 3,-1 2,0 3,1 4,3 0,0 0,1 0,1l0 0c0,1 -1,3 -2,6 -1,2 -2,3 -3,6 -2,2 -3,3 -4,4 -2,2 -4,3 -6,3 -3,1 -6,2 -9,2l-1 0c-5,0 -10,-2 -15,-5 -2,-2 -4,-4 -6,-6 -1,-2 -2,-3 -3,-5 -1,-4 -2,-7 -2,-10 0,-6 2,-12 6,-17 2,-2 3,-3 4,-4 5,-3 10,-5 16,-5zm-17 26c0,2 0,4 1,4 0,0 1,1 2,1 0,0 1,-1 3,-2 0,0 7,-5 20,-14 1,0 1,-1 1,-2l0 0c0,-1 0,-1 -1,-2 -3,-1 -5,-2 -8,-2l-1 0c-4,0 -8,2 -11,5 -4,4 -5,8 -5,12z"/>
   <path id="5" class="fil3" d="M1017 853l9 0c0,0 0,0 0,0l0 67c0,2 0,3 -1,4 -1,1 -2,1 -3,1 -2,0 -3,-1 -4,-3 0,0 0,-1 0,-2l0 -47c0,-2 0,-2 -1,-3 0,0 0,0 -1,0l-7 0c0,0 0,0 0,0l0 -9c0,0 0,0 0,0l0 0c2,0 4,-1 6,-3 1,-2 2,-4 2,-5l0 0c0,0 0,0 0,0z"/>
   <path id="6" class="fil3" d="M1059 853l1 0c6,0 12,3 17,8 4,4 5,9 5,14l0 2c0,3 -1,8 -4,13 -11,21 -17,33 -18,36l-10 0 0 0c0,0 4,-8 12,-25 0,0 0,-1 0,-1 0,-1 -1,-2 -2,-2 -6,0 -10,-1 -14,-4 -2,-1 -4,-3 -6,-6 -2,-4 -4,-8 -4,-12l0 -1c0,-5 2,-9 5,-13 2,-3 4,-4 5,-5 3,-2 6,-3 9,-4 0,0 1,0 3,0zm-13 22l0 1c0,3 1,7 4,10 3,2 6,4 9,4l1 0c3,0 7,-1 10,-4 2,-3 4,-6 4,-9l0 -1c0,-3 -1,-7 -4,-10 -3,-2 -6,-4 -9,-4l-1 0c-3,0 -7,1 -10,4 -2,3 -4,6 -4,9z"/>
   <path id="7" class="fil3" d="M1111 853l1 0c6,0 12,3 17,8 4,4 5,9 5,14l0 2c0,3 -1,8 -4,13 -11,21 -17,33 -18,36l-10 0 0 0c0,0 4,-8 12,-25 0,0 0,-1 0,-1 0,-1 -1,-2 -2,-2 -6,0 -10,-1 -14,-4 -2,-1 -4,-3 -6,-6 -2,-4 -4,-8 -4,-12l0 -1c0,-5 2,-9 5,-13 2,-3 4,-4 5,-5 3,-2 6,-3 9,-4 0,0 1,0 3,0zm-13 22l0 1c0,3 1,7 4,10 3,2 6,4 9,4l1 0c3,0 7,-1 10,-4 2,-3 4,-6 4,-9l0 -1c0,-3 -1,-7 -4,-10 -3,-2 -6,-4 -9,-4l-1 0c-3,0 -7,1 -10,4 -2,3 -4,6 -4,9z"/>
   <path id="8" class="fil3" d="M1168 852l10 0 0 0c-15,23 -23,35 -24,36 0,0 0,1 0,1l0 0c0,1 1,1 2,2 0,0 1,0 1,0l10 0c2,0 2,0 3,-1 0,0 0,0 0,-1l0 -12c0,0 0,0 0,0l9 0c0,0 0,0 0,0l0 14 9 0c0,0 0,0 0,0l0 9c0,0 0,0 0,0l-9 0 0 20c0,2 -1,3 -3,4 -1,0 -1,0 -1,0l0 0c-2,0 -3,-1 -4,-3 0,-1 0,-1 0,-2l0 -19 -25 0c-2,0 -4,-1 -5,-2 0,-1 -1,-1 -1,-2l0 -1c0,-1 1,-3 3,-6 0,0 8,-13 24,-37 1,-1 1,-1 1,-1z"/>
  </g>
 </g>
</svg>
