<?xml version="1.0" encoding="UTF-8"?>
<!DOCTYPE svg PUBLIC "-//W3C//DTD SVG 1.1//EN" "http://www.w3.org/Graphics/SVG/1.1/DTD/svg11.dtd">
<!-- Creator: CorelDRAW X6 -->
<svg xmlns="http://www.w3.org/2000/svg" xml:space="preserve" width="6.70576in" height="1.28147in" version="1.1" style="shape-rendering:geometricPrecision; text-rendering:geometricPrecision; image-rendering:optimizeQuality; fill-rule:evenodd; clip-rule:evenodd"
viewBox="0 0 4395 840"
 xmlns:xlink="http://www.w3.org/1999/xlink">
 <defs>
  <style type="text/css">
   <![CDATA[
    .str0 {stroke:#FEFEFE;stroke-width:6.55424;stroke-linejoin:round}
    .fil1 {fill:none}
    .fil0 {fill:#FEFEFE;fill-rule:nonzero}
   ]]>
  </style>
 </defs>
 <g id="Capa_x0020_1">
  <metadata id="CorelCorpID_0Corel-Layer"/>
  <g id="_282132416">
   <path class="fil0" d="M1599 346l-132 -287 0 228c0,21 2,34 7,39 6,7 16,11 30,11l12 0 0 9 -120 0 0 -9 12 0c15,0 25,-4 31,-13 4,-5 6,-18 6,-37l0 -223c0,-15 -2,-26 -5,-33 -2,-5 -7,-9 -13,-12 -6,-3 -17,-5 -31,-5l0 -9 98 0 123 267 122 -267 97 0 0 9 -12 0c-15,0 -25,4 -31,13 -4,5 -6,18 -6,37l0 223c0,21 2,34 7,39 6,7 16,11 30,11l12 0 0 9 -146 0 0 -9 12 0c15,0 25,-4 31,-13 4,-5 6,-18 6,-37l0 -228 -131 287 -8 0z"/>
   <path id="1" class="fil0" d="M2010 124l0 -6 80 0 0 6 -9 0c-9,0 -16,4 -21,11 -2,3 -3,11 -3,24l0 92c0,23 -2,40 -7,53 -5,13 -13,23 -27,32 -13,9 -31,13 -54,13 -25,0 -44,-4 -56,-13 -13,-9 -22,-20 -27,-35 -4,-10 -5,-29 -5,-56l0 -89c0,-14 -2,-23 -6,-27 -4,-4 -10,-7 -19,-7l-9 0 0 -6 98 0 0 6 -9 0c-9,0 -16,3 -20,9 -3,4 -4,12 -4,25l0 99c0,9 1,19 2,30 2,11 5,20 9,27 4,6 10,12 18,16 8,4 18,6 29,6 15,0 28,-3 40,-10 12,-6 20,-15 24,-25 4,-10 6,-27 6,-51l0 -92c0,-14 -2,-23 -5,-27 -4,-5 -11,-7 -19,-7l-9 0z"/>
   <path id="2" class="fil0" d="M2251 113l0 79 -6 0c-2,-15 -6,-27 -11,-36 -5,-9 -13,-16 -22,-21 -10,-5 -20,-8 -30,-8 -12,0 -21,4 -29,11 -8,7 -11,15 -11,24 0,7 2,13 7,19 7,8 23,20 50,34 21,11 36,20 44,26 8,6 14,13 18,22 4,8 6,17 6,26 0,17 -7,32 -20,44 -13,12 -31,19 -52,19 -7,0 -13,-1 -19,-2 -3,-1 -11,-3 -22,-6 -11,-4 -18,-5 -21,-5 -3,0 -5,1 -7,3 -2,2 -3,5 -4,11l-6 0 0 -78 6 0c3,16 7,29 12,37 5,8 12,15 23,20 10,5 21,8 33,8 14,0 25,-4 33,-11 8,-7 12,-16 12,-26 0,-6 -2,-11 -5,-17 -3,-6 -8,-11 -14,-16 -4,-3 -16,-10 -36,-21 -20,-11 -33,-20 -42,-26 -8,-6 -15,-14 -19,-21 -4,-8 -6,-16 -6,-26 0,-16 6,-30 19,-42 13,-12 29,-18 48,-18 12,0 25,3 38,9 6,3 11,4 13,4 3,0 5,-1 7,-3 2,-2 3,-5 4,-10l6 0z"/>
   <path id="3" class="fil0" d="M2391 340l0 6 -97 0 0 -6 8 0c9,0 16,-3 21,-8 3,-4 4,-12 4,-26l0 -147c0,-11 -1,-19 -2,-23 -1,-3 -3,-5 -7,-7 -5,-3 -10,-4 -15,-4l-8 0 0 -6 97 0 0 6 -8 0c-9,0 -16,3 -20,8 -3,4 -4,12 -4,26l0 147c0,11 1,19 2,23 1,3 3,5 7,7 5,3 10,4 15,4l8 0z"/>
   <path id="4" class="fil0" d="M2606 113l5 77 -5 0c-7,-23 -17,-40 -30,-50 -13,-10 -28,-15 -46,-15 -15,0 -29,4 -41,11 -12,8 -22,20 -29,37 -7,17 -10,38 -10,63 0,21 3,38 10,54 7,15 16,27 30,35 13,8 28,12 45,12 15,0 28,-3 39,-9 11,-6 24,-19 37,-38l5 3c-11,20 -25,35 -40,44 -15,9 -33,14 -54,14 -38,0 -67,-14 -87,-42 -15,-21 -23,-45 -23,-73 0,-23 5,-44 15,-63 10,-19 24,-34 42,-44 18,-10 37,-16 58,-16 16,0 32,4 48,12 5,2 8,4 10,4 3,0 6,-1 8,-3 3,-3 5,-7 6,-13l6 0z"/>
   <path id="5" class="fil0" d="M2785 270l-88 0 -15 36c-4,9 -6,15 -6,20 0,3 2,7 5,9 3,3 10,4 21,5l0 6 -72 0 0 -6c9,-2 16,-4 18,-7 6,-5 12,-16 19,-33l80 -187 6 0 79 189c6,15 12,25 17,30 5,5 12,7 22,8l0 6 -90 0 0 -6c9,0 15,-2 18,-5 3,-3 5,-6 5,-9 0,-5 -2,-13 -7,-23l-13 -32zm-5 -12l-38 -92 -39 92 78 0z"/>
   <path id="6" class="fil0" d="M3073 283l5 1 -20 62 -176 0 0 -6 9 0c10,0 16,-3 21,-9 2,-4 3,-12 3,-25l0 -147c0,-14 -2,-23 -5,-27 -4,-5 -11,-7 -19,-7l-9 0 0 -6 103 0 0 6c-12,0 -21,1 -25,3 -5,2 -8,5 -10,9 -2,4 -3,12 -3,25l0 143c0,9 1,16 3,19 1,2 3,4 6,5 3,1 11,2 26,2l17 0c17,0 30,-1 37,-4 7,-3 13,-7 19,-14 6,-7 12,-17 17,-31z"/>
   <path id="7" class="fil0" d="M1477 824l0 6 -97 0 0 -6 8 0c9,0 16,-3 21,-8 3,-4 4,-12 4,-26l0 -147c0,-11 -1,-19 -2,-23 -1,-3 -3,-5 -7,-7 -5,-3 -10,-4 -15,-4l-8 0 0 -6 97 0 0 6 -8 0c-9,0 -16,3 -20,8 -3,4 -4,12 -4,26l0 147c0,11 1,19 2,23 1,3 3,5 7,7 5,3 10,4 15,4l8 0z"/>
   <path id="8" class="fil0" d="M1642 754l-88 0 -15 36c-4,9 -6,15 -6,20 0,3 2,7 5,9 3,3 10,4 21,5l0 6 -72 0 0 -6c9,-2 16,-4 18,-7 6,-5 12,-16 19,-33l80 -187 6 0 79 189c6,15 12,25 17,30 5,5 12,7 22,8l0 6 -90 0 0 -6c9,0 15,-2 18,-5 3,-3 5,-6 5,-9 0,-5 -2,-13 -7,-23l-13 -32zm-5 -12l-38 -92 -39 92 78 0z"/>
   <path id="9" class="fil0" d="M1728 603l61 0 139 171 0 -131c0,-14 -2,-23 -5,-26 -4,-5 -11,-7 -20,-7l-8 0 0 -6 80 0 0 6 -8 0c-10,0 -17,3 -21,9 -2,4 -4,12 -4,25l0 192 -6 0 -150 -183 0 140c0,14 2,23 5,26 4,5 11,7 20,7l8 0 0 6 -80 0 0 -6 8 0c10,0 17,-3 21,-9 2,-4 4,-12 4,-25l0 -158c-7,-8 -12,-13 -15,-15 -3,-2 -8,-5 -15,-7 -3,-1 -8,-1 -15,-1l0 -6z"/>
   <path id="10" class="fil0" d="M2106 598c29,0 55,11 77,34 22,22 32,50 32,84 0,35 -11,63 -33,86 -22,23 -48,34 -79,34 -31,0 -57,-11 -79,-33 -21,-22 -32,-51 -32,-86 0,-36 12,-66 37,-88 21,-20 47,-30 77,-30zm-3 12c-20,0 -37,8 -49,23 -15,19 -23,46 -23,83 0,37 8,66 24,86 12,15 28,23 48,23 21,0 39,-8 53,-25 14,-17 21,-43 21,-79 0,-39 -8,-68 -23,-87 -12,-15 -29,-23 -51,-23z"/>
   <path id="11" class="fil0" d="M2640 598c29,0 55,11 77,34 22,22 32,50 32,84 0,35 -11,63 -33,86 -22,23 -48,34 -79,34 -31,0 -57,-11 -79,-33 -21,-22 -32,-51 -32,-86 0,-36 12,-66 37,-88 21,-20 47,-30 77,-30zm-3 12c-20,0 -37,8 -49,23 -15,19 -23,46 -23,83 0,37 8,66 24,86 12,15 28,23 48,23 21,0 39,-8 53,-25 14,-17 21,-43 21,-79 0,-39 -8,-68 -23,-87 -12,-15 -29,-23 -51,-23z"/>
   <path id="12" class="fil0" d="M2994 830l-61 0 -77 -106c-6,0 -10,0 -14,0 -1,0 -3,0 -5,0 -2,0 -3,0 -5,0l0 66c0,14 2,23 5,27 4,5 11,7 19,7l9 0 0 6 -97 0 0 -6 9 0c10,0 16,-3 21,-9 2,-3 3,-12 3,-25l0 -147c0,-14 -2,-23 -5,-27 -4,-5 -11,-7 -19,-7l-9 0 0 -6 83 0c24,0 42,2 53,5 11,4 21,10 29,20 8,9 12,21 12,34 0,14 -5,26 -14,36 -9,10 -23,18 -42,22l47 65c11,15 20,25 28,30 8,5 18,8 30,9l0 6zm-161 -117c2,0 4,0 5,0 2,0 3,0 4,0 21,0 38,-5 48,-14 11,-9 16,-21 16,-36 0,-14 -4,-26 -13,-35 -9,-9 -20,-13 -35,-13 -6,0 -15,1 -26,3l0 95z"/>
   <path id="13" class="fil0" d="M3169 603l2 53 -6 0c-1,-9 -3,-16 -5,-20 -3,-6 -8,-11 -14,-14 -6,-3 -13,-5 -23,-5l-32 0 0 174c0,14 1,23 5,26 4,5 11,7 20,7l8 0 0 6 -97 0 0 -6 8 0c10,0 17,-3 21,-9 2,-4 4,-12 4,-25l0 -174 -27 0c-11,0 -18,1 -23,2 -6,2 -11,6 -15,12 -4,6 -7,14 -7,24l-6 0 2 -53 186 0z"/>
   <path id="14" class="fil0" d="M3252 615l0 90 50 0c13,0 22,-2 26,-6 6,-5 9,-14 10,-27l6 0 0 79 -6 0c-2,-11 -3,-18 -5,-21 -2,-4 -5,-7 -10,-9 -5,-2 -12,-3 -21,-3l-50 0 0 75c0,10 0,16 1,18 1,2 2,4 5,5 2,1 7,2 13,2l38 0c13,0 22,-1 28,-3 6,-2 11,-5 17,-11 7,-7 14,-17 21,-31l7 0 -20 57 -175 0 0 -6 8 0c5,0 10,-1 15,-4 4,-2 6,-4 7,-8 1,-4 2,-11 2,-22l0 -148c0,-14 -1,-23 -4,-27 -4,-4 -11,-7 -20,-7l-8 0 0 -6 175 0 2 50 -7 0c-2,-12 -5,-20 -8,-25 -3,-5 -7,-8 -13,-10 -4,-2 -12,-3 -24,-3l-62 0z"/>
   <path id="15" class="fil0" d="M1190 670l0 100c0,21 2,35 7,40 6,7 16,11 29,11l13 0 0 9 -146 0 0 -9 13 0c14,0 25,-5 31,-14 3,-5 5,-17 5,-37l0 -221c0,-21 -2,-35 -7,-40 -7,-7 -16,-11 -29,-11l-13 0 0 -9 125 0c31,0 55,3 72,9 18,6 32,17 45,32 12,15 18,33 18,53 0,28 -9,51 -28,68 -18,17 -44,26 -78,26 -8,0 -17,-1 -27,-2 -10,-1 -20,-3 -31,-5zm0 -14c9,2 17,3 24,4 7,1 13,1 17,1 17,0 32,-7 45,-20 13,-13 19,-31 19,-52 0,-15 -3,-28 -9,-41 -6,-13 -15,-22 -26,-28 -11,-6 -24,-9 -38,-9 -9,0 -19,2 -33,5l0 141z"/>
   <path id="16" class="fil0" d="M2334 508l0 134 62 0c14,0 25,-3 31,-9 7,-6 11,-19 13,-38l9 0 0 116 -9 0c0,-13 -2,-23 -5,-29 -3,-6 -8,-11 -14,-14 -6,-3 -14,-5 -26,-5l-62 0 0 108c0,17 1,29 3,34 2,4 5,8 10,11 7,4 15,6 23,6l12 0 0 9 -146 0 0 -9 12 0c14,0 24,-4 31,-12 4,-5 6,-18 6,-39l0 -221c0,-17 -1,-29 -3,-34 -2,-4 -5,-8 -10,-11 -7,-4 -15,-6 -23,-6l-12 0 0 -9 253 0 4 75 -9 0c-4,-16 -9,-28 -15,-35 -6,-7 -13,-13 -21,-16 -8,-3 -22,-5 -39,-5l-75 0z"/>
   <path class="fil1 str0" d="M517 799c1,8 2,16 3,24 7,5 13,9 20,14 8,-4 16,-7 24,-11 0,-9 0,-18 0,-27 -9,4 -17,9 -26,13 -7,-4 -14,-9 -21,-13m-133 -297l91 -40m-110 30l96 -39m-434 -138l84 -33m-66 41l83 -32m-66 41l84 -32m-67 41l85 -33m-68 41l85 -33m-68 42l86 -33m-69 42l87 -33m-70 42l87 -34m-70 42l88 -34m-71 43l89 -34m-72 43l89 -34m-72 43l90 -35m-73 44l91 -35m-74 44l91 -35m-74 44l92 -35m-75 44l93 -36m-76 45l93 -36m-76 45l94 -36m-77 45l95 -36m-78 45l95 -37m-44 64c7,-3 13,-7 20,-10m2 22c-135,-71 -271,-142 -406,-213 29,-11 57,-21 86,-32l381 188m-67 79c-137,-73 -273,-146 -410,-218m476 139c-21,9 -42,18 -63,27 0,6 -1,10 -1,16 11,10 8,7 -3,19 0,6 0,11 0,17 5,3 10,5 15,8 91,-36 182,-72 274,-108m-170 -161c-1,16 -1,31 -2,47 2,5 5,9 7,14 23,40 25,85 -22,107 -12,5 -24,10 -36,14m230 -238c-59,19 -119,37 -178,56 -147,-59 -294,-118 -441,-177m620 106c-3,86 -6,172 -9,257m-611 -376c146,57 292,115 439,172 75,-22 150,-44 224,-66 52,-82 -45,-70 151,-134m-766 502l15 5 14 -11c1,-41 2,-82 2,-123 26,14 52,27 77,41 17,9 34,19 51,28 8,4 15,8 23,13 1,40 2,80 3,119 -9,4 -18,8 -27,13 0,7 0,14 0,20 -46,11 -18,41 14,11 7,3 11,7 18,10 -53,21 1,43 12,8 10,7 20,14 31,22 17,-8 33,-15 50,-23l0 -20 -36 -25c0,-34 -1,-68 -1,-101 14,8 28,15 42,23 23,-9 46,-17 68,-26 4,2 8,4 13,6 3,80 3,163 6,242m292 -315c0,-67 12,-162 26,-230 86,-39 63,-57 69,-152 1,-12 2,-24 2,-35 76,-81 -97,-68 -216,-47 -92,16 -125,23 -220,24 -64,1 -127,1 -192,1l-185 50c0,16 1,33 1,49 74,94 -17,114 -91,139 -1,14 10,6 13,12 2,3 -2,12 0,15 -6,9 -9,10 -9,17l0 19c41,22 77,43 117,64 5,53 10,104 17,157l-1 19 19 7 13 -8 -1 -24m393 238c0,-2 0,-3 0,-5 5,-77 8,-224 39,-282l101 -42c12,-5 24,-10 35,-15 3,-41 -1,-152 35,-173l-5 221 18 10 20 -9 0 -20 -20 8 -18 -11m-411 160l-7 -4c0,-32 1,-66 0,-98l0 -4 6 4 4 2 -2 101z"/>
   <path class="fil1 str0" d="M3754 502l126 22 462 -64m-558 271c22,0 64,5 68,-23 5,-35 -2,-50 19,-68 9,-8 33,-20 42,-24 29,-14 23,-85 -9,-95m-123 211c27,5 18,-64 47,-85 17,-13 45,-22 64,-32 32,-17 22,-87 -1,-92l-10 1 -10 -2c-13,3 -16,25 -13,39 3,14 6,26 25,25 4,0 11,-10 12,-19 1,-21 -11,-27 -17,-26 -5,1 -6,5 -7,8 -4,14 16,28 14,22 -1,-3 -7,-5 -8,-13 -1,-4 0,-10 3,-11 7,-2 13,22 7,27 -4,4 -9,1 -12,-1 -8,-7 -12,-22 -8,-32 2,-4 15,-14 23,-6 23,20 4,54 -3,59 -15,11 -37,15 -57,21 -52,14 -70,113 -47,118zm113 -316l17 5 0 33m-17 -45l33 10 0 33m-33 -50l49 16 0 32m-51 -58l67 23 0 32m-64 -63l80 29 0 33m-68 -63l84 28 0 32m-72 -62l88 28 0 32m-73 -61l89 27 0 32m-73 -61l89 27 0 32m-73 -61l89 27 0 32m-73 -61l89 27 0 32m-72 -61l88 27 0 32m-71 -61l87 27 0 32m-72 -61l88 27 0 32m-72 -61l88 27 0 32m-72 -60l88 27 0 32m-71 -60l87 27 0 32m-72 -60l88 26 0 31m-70 -59l86 27 0 31m-71 -59l87 26 0 31m-71 -59l87 26 0 32m-70 -60l86 26 0 32m-70 -60l87 26 0 32m-71 -59l87 26 0 32m-70 -59l87 26 0 31m-70 -59l86 26 0 31m-70 -58l86 26 0 31m-70 -58l86 26 0 31m-91 -168c5,37 -3,51 22,70 103,15 101,9 101,93m-601 -118c5,37 -4,45 25,67 103,15 94,4 92,110m383 -114l86 25 0 31m-469 -14l397 -44 88 25m-251 -139c28,-1 57,-3 85,-4 0,-31 0,-62 0,-92 -28,2 -57,5 -85,7 0,30 0,60 0,89zm-578 -135l0 -14 13 -7 1 -7c202,-7 403,-18 605,-26l140 11 0 6 11 7 0 10 -33 11 0 14c-7,0 -18,0 -26,0 0,41 1,82 1,124l4 11c0,41 3,56 19,67 41,7 49,1 81,14 26,11 20,61 20,83l6 1 0 7 -15 9 14 9 0 10 -14 7 14 7 0 10 -48 6c13,27 29,76 -23,98 -3,2 -16,7 -28,11 -29,10 1,65 -28,87l0 11 11 4 0 36 -521 95 -152 -42 0 -41 10 -1 -1 -601 -24 0 1 -19 -38 -6zm13 -28c55,5 110,7 166,13 195,-8 389,-16 584,-25m-724 46l146 9 551 -24m-674 634c48,14 95,25 143,39 173,-29 347,-58 520,-86m-479 80c-13,-5 -25,-9 -38,-14 -1,-10 -3,-20 -4,-30 1,-193 3,-386 4,-579 -7,0 -15,1 -22,1 0,-7 -1,-14 -1,-21m22 173c170,-16 339,-32 509,-48m-501 48c5,37 -2,47 27,69 103,15 92,3 89,109 -42,-7 -84,-9 -126,-16m126 16c169,-22 335,-40 504,-62m-491 27c167,-20 325,-38 491,-58m-653 -190c-28,0 -57,0 -85,0 0,56 1,112 1,168 26,1 53,3 79,4 1,-58 3,-115 4,-173zm-3 274c-28,0 -57,0 -85,0 0,74 1,148 1,222 26,2 53,4 79,6 1,-76 3,-152 4,-228zm63 -195c28,-1 57,-3 85,-4 0,-31 0,-62 0,-92 -28,2 -57,5 -85,7 0,30 0,60 0,89zm133 -7c0,-31 0,-63 0,-94 55,-4 109,-8 164,-12 0,30 0,60 0,89 -55,5 -109,11 -164,16zm288 412l51 -3m-58 3c2,0 4,0 6,0 0,0 0,0 1,0 19,-7 14,-65 40,-85 17,-13 45,-22 64,-32 32,-17 21,-74 -1,-78l-14 2c-27,10 -27,63 5,60 4,0 11,-10 12,-19 1,-21 -11,-27 -17,-26 -5,1 -6,5 -7,8 -4,14 16,28 14,22 -1,-3 -7,-5 -8,-13 -1,-4 0,-10 3,-11 7,-2 13,22 7,27 -4,4 -9,1 -12,-1 -8,-7 -12,-22 -8,-32 2,-4 18,-16 23,-6 32,65 -40,61 -59,66 -52,14 -70,113 -47,118z"/>
  </g>
 </g>
</svg>
