<?xml version="1.0" encoding="UTF-8"?>
<!DOCTYPE svg PUBLIC "-//W3C//DTD SVG 1.1//EN" "http://www.w3.org/Graphics/SVG/1.1/DTD/svg11.dtd">
<!-- Creator: CorelDRAW X6 -->
<svg xmlns="http://www.w3.org/2000/svg" xml:space="preserve" width="3.99787in" height="0.3365in" version="1.1" style="shape-rendering:geometricPrecision; text-rendering:geometricPrecision; image-rendering:optimizeQuality; fill-rule:evenodd; clip-rule:evenodd"
viewBox="0 0 15729 1324"
 xmlns:xlink="http://www.w3.org/1999/xlink">
 <defs>
  <style type="text/css">
   <![CDATA[
    .fil0 {fill:#FEFEFE;fill-rule:nonzero}
   ]]>
  </style>
 </defs>
 <g id="Capa_x0020_1">
  <metadata id="CorelCorpID_0Corel-Layer"/>
  <path class="fil0" d="M775 1304l-504 -1097 0 871c0,80 9,130 26,150 24,27 62,40 114,40l47 0 0 35 -458 0 0 -35 47 0c56,0 95,-17 119,-50 14,-21 21,-68 21,-141l0 -852c0,-58 -7,-100 -19,-125 -9,-19 -26,-34 -50,-47 -25,-12 -64,-19 -117,-19l0 -35 374 0 470 1020 466 -1020 370 0 0 35 -46 0c-57,0 -96,17 -120,50 -14,21 -21,68 -21,141l0 852c0,80 9,130 27,150 24,27 62,40 114,40l46 0 0 35 -559 0 0 -35 47 0c56,0 96,-17 119,-50 14,-21 21,-68 21,-141l0 -871 -502 1097 -31 0z"/>
  <path id="1" class="fil0" d="M7351 693l0 381c0,82 9,133 27,152 24,28 61,42 110,42l50 0 0 35 -559 0 0 -35 49 0c55,0 95,-18 118,-54 13,-20 19,-67 19,-141l0 -844c0,-82 -9,-133 -26,-152 -25,-28 -62,-42 -112,-42l-49 0 0 -35 478 0c117,0 209,12 276,36 67,24 124,65 170,122 46,57 69,125 69,203 0,107 -35,193 -105,260 -70,67 -169,100 -297,100 -31,0 -65,-2 -102,-7 -37,-4 -76,-11 -117,-20zm0 -55c34,7 64,11 90,14 26,3 49,5 67,5 67,0 124,-26 172,-77 48,-51 72,-118 72,-200 0,-56 -11,-109 -34,-157 -23,-48 -56,-84 -98,-108 -42,-24 -90,-36 -144,-36 -33,0 -74,6 -126,18l0 541z"/>
  <path id="2" class="fil0" d="M11723 71l0 511 236 0c55,0 95,-12 120,-35 26,-24 42,-71 51,-144l35 0 0 443 -35 0c-1,-50 -7,-88 -20,-111 -13,-24 -30,-42 -52,-53 -22,-12 -55,-18 -99,-18l-236 0 0 411c0,66 4,110 12,130 6,16 20,30 40,41 28,15 57,23 88,23l47 0 0 35 -559 0 0 -35 46 0c54,0 93,-16 118,-47 15,-21 23,-70 23,-148l0 -844c0,-66 -4,-110 -12,-130 -7,-16 -20,-30 -40,-41 -28,-15 -57,-23 -89,-23l-46 0 0 -35 968 0 14 287 -33 0c-17,-61 -36,-106 -58,-135 -22,-29 -50,-50 -82,-62 -32,-13 -82,-19 -150,-19l-287 0z"/>
  <path id="3" class="fil0" d="M2346 458l0 -24 306 0 0 24 -33 0c-34,0 -60,14 -79,43 -9,13 -13,44 -13,92l0 352c0,87 -9,155 -26,203 -17,48 -51,89 -102,124 -50,34 -119,52 -206,52 -95,0 -167,-16 -216,-49 -49,-33 -84,-77 -104,-133 -14,-38 -21,-109 -21,-214l0 -340c0,-53 -7,-88 -22,-105 -15,-17 -38,-25 -71,-25l-33 0 0 -24 375 0 0 24 -33 0c-36,0 -61,11 -77,34 -11,15 -16,47 -16,96l0 379c0,34 3,72 9,116 6,44 17,77 34,102 16,24 40,44 70,60 31,16 68,24 112,24 57,0 108,-12 153,-37 45,-25 75,-57 92,-95 16,-39 25,-104 25,-196l0 -352c0,-54 -6,-88 -18,-102 -17,-19 -41,-28 -74,-28l-33 0z"/>
  <path id="4" class="fil0" d="M3269 415l0 300 -24 0c-8,-58 -21,-104 -41,-138 -20,-34 -48,-61 -85,-81 -37,-20 -75,-30 -114,-30 -45,0 -81,14 -110,41 -29,27 -44,58 -44,93 0,26 9,51 28,73 27,32 90,75 189,128 81,44 137,77 167,100 30,23 53,51 69,82 16,32 24,65 24,99 0,66 -26,122 -77,170 -51,48 -117,71 -197,71 -25,0 -49,-2 -71,-6 -13,-2 -41,-10 -82,-24 -42,-14 -68,-20 -79,-20 -11,0 -19,3 -25,10 -6,7 -11,20 -14,40l-24 0 0 -298 24 0c11,62 26,109 45,140 19,31 48,57 86,77 39,21 81,31 127,31 53,0 96,-14 127,-42 31,-28 47,-62 47,-100 0,-21 -6,-43 -17,-65 -12,-22 -30,-42 -55,-61 -17,-13 -62,-40 -137,-82 -75,-41 -128,-75 -159,-99 -31,-25 -56,-52 -72,-82 -16,-30 -24,-63 -24,-99 0,-62 24,-116 72,-161 48,-45 109,-68 183,-68 46,0 95,11 147,34 24,11 41,16 51,16 11,0 20,-3 27,-10 7,-7 13,-20 17,-40l24 0z"/>
  <path id="5" class="fil0" d="M3801 1281l0 24 -372 0 0 -24 31 0c36,0 62,-10 78,-31 10,-14 15,-47 15,-99l0 -563c0,-44 -3,-73 -8,-87 -4,-11 -13,-20 -26,-28 -19,-10 -38,-15 -59,-15l-31 0 0 -24 372 0 0 24 -31 0c-35,0 -61,10 -77,31 -11,14 -16,47 -16,99l0 563c0,44 3,73 8,87 4,11 13,20 27,28 18,10 38,15 58,15l31 0z"/>
  <path id="6" class="fil0" d="M4622 415l20 295 -20 0c-26,-88 -64,-152 -113,-191 -49,-39 -108,-58 -176,-58 -57,0 -109,15 -156,44 -46,29 -83,76 -109,140 -26,64 -40,144 -40,239 0,79 12,147 38,205 25,58 63,102 113,133 50,31 108,46 172,46 56,0 106,-12 149,-36 43,-24 90,-72 142,-144l20 13c-44,77 -94,134 -152,169 -58,36 -127,54 -206,54 -144,0 -255,-53 -334,-160 -59,-80 -88,-173 -88,-281 0,-87 19,-167 58,-239 39,-73 92,-129 160,-169 68,-40 142,-60 223,-60 62,0 124,15 185,46 18,9 31,14 38,14 11,0 21,-4 30,-12 11,-12 19,-28 24,-48l24 0z"/>
  <path id="7" class="fil0" d="M5308 1014l-337 0 -58 136c-14,34 -22,59 -22,76 0,13 6,25 19,35 12,10 40,16 82,19l0 24 -274 0 0 -24c36,-6 60,-15 70,-25 22,-21 46,-62 72,-125l306 -716 22 0 302 723c24,58 46,96 66,113 20,17 47,27 83,29l0 24 -343 0 0 -24c35,-2 58,-7 70,-17 12,-10 18,-22 18,-36 0,-19 -9,-49 -26,-89l-51 -124zm-20 -47l-146 -351 -150 351 297 0z"/>
  <path id="8" class="fil0" d="M6407 1064l21 5 -75 235 -673 0 0 -24 33 0c37,0 63,-12 79,-36 9,-14 13,-45 13,-94l0 -563c0,-54 -6,-88 -18,-102 -17,-19 -41,-28 -74,-28l-33 0 0 -24 393 0 0 24c-46,0 -78,4 -97,13 -19,9 -31,20 -38,33 -7,14 -10,46 -10,97l0 548c0,36 4,60 10,73 5,9 13,16 24,20 10,4 44,6 100,6l63 0c67,0 114,-5 141,-15 27,-10 52,-27 74,-52 22,-25 44,-64 67,-118z"/>
  <path id="9" class="fil0" d="M8447 1281l0 24 -372 0 0 -24 31 0c36,0 62,-10 78,-31 10,-14 15,-47 15,-99l0 -563c0,-44 -3,-73 -8,-87 -4,-11 -13,-20 -26,-28 -19,-10 -38,-15 -59,-15l-31 0 0 -24 372 0 0 24 -31 0c-35,0 -61,10 -77,31 -11,14 -16,47 -16,99l0 563c0,44 3,73 8,87 4,11 13,20 27,28 18,10 38,15 58,15l31 0z"/>
  <path id="10" class="fil0" d="M9079 1014l-337 0 -58 136c-14,34 -22,59 -22,76 0,13 6,25 19,35 12,10 40,16 82,19l0 24 -274 0 0 -24c36,-6 60,-15 70,-25 22,-21 46,-62 72,-125l306 -716 22 0 302 723c24,58 46,96 66,113 20,17 47,27 83,29l0 24 -343 0 0 -24c35,-2 58,-7 70,-17 12,-10 18,-22 18,-36 0,-19 -9,-49 -26,-89l-51 -124zm-20 -47l-146 -351 -150 351 297 0z"/>
  <path id="11" class="fil0" d="M9408 435l234 0 533 653 0 -502c0,-54 -6,-87 -18,-100 -16,-18 -41,-27 -76,-27l-31 0 0 -24 306 0 0 24 -31 0c-37,0 -64,11 -79,33 -9,14 -14,45 -14,94l0 733 -23 0 -572 -700 0 535c0,54 6,87 17,100 16,18 42,27 76,27l31 0 0 24 -306 0 0 -24 31 0c38,0 64,-11 80,-33 9,-14 14,-45 14,-94l0 -605c-25,-30 -44,-49 -57,-58 -13,-9 -32,-18 -57,-26 -12,-4 -31,-6 -56,-6l0 -24z"/>
  <path id="12" class="fil0" d="M10852 415c113,0 210,43 293,129 83,86 124,193 124,321 0,132 -42,242 -125,329 -83,87 -184,131 -302,131 -119,0 -220,-43 -301,-128 -81,-85 -122,-195 -122,-330 0,-138 47,-250 141,-338 82,-76 179,-113 292,-113zm-12 46c-77,0 -140,29 -186,87 -58,72 -88,177 -88,316 0,142 30,251 91,328 47,58 108,87 184,87 82,0 149,-32 202,-96 53,-64 80,-164 80,-301 0,-149 -29,-260 -88,-333 -47,-58 -111,-87 -194,-87z"/>
  <path id="13" class="fil0" d="M12893 415c113,0 210,43 293,129 83,86 124,193 124,321 0,132 -42,242 -125,329 -83,87 -184,131 -302,131 -119,0 -220,-43 -301,-128 -81,-85 -122,-195 -122,-330 0,-138 47,-250 141,-338 82,-76 179,-113 292,-113zm-12 46c-77,0 -140,29 -186,87 -58,72 -88,177 -88,316 0,142 30,251 91,328 47,58 108,87 184,87 82,0 149,-32 202,-96 53,-64 80,-164 80,-301 0,-149 -29,-260 -88,-333 -47,-58 -111,-87 -194,-87z"/>
  <path id="14" class="fil0" d="M14248 1304l-233 0 -295 -407c-21,1 -38,1 -52,1 -5,0 -11,0 -17,0 -6,0 -13,0 -19,-1l0 253c0,55 6,89 18,102 16,19 40,28 73,28l34 0 0 24 -372 0 0 -24 33 0c37,0 63,-12 79,-36 9,-13 13,-45 13,-94l0 -563c0,-55 -6,-89 -18,-102 -17,-19 -41,-28 -74,-28l-33 0 0 -24 316 0c92,0 160,7 204,20 44,14 81,38 111,75 31,36 46,79 46,129 0,54 -17,100 -52,139 -35,39 -89,67 -162,84l180 249c41,57 76,96 106,114 29,19 68,31 115,36l0 24zm-617 -447c8,0 15,0 21,0 6,0 11,0 14,0 82,0 144,-18 185,-54 42,-36 62,-82 62,-137 0,-54 -17,-98 -50,-132 -34,-34 -78,-51 -134,-51 -24,0 -58,4 -99,12l0 362z"/>
  <path id="15" class="fil0" d="M14916 435l9 204 -24 0c-5,-36 -11,-62 -19,-77 -13,-25 -31,-43 -53,-55 -22,-12 -51,-18 -87,-18l-122 0 0 664c0,54 6,87 17,100 16,18 41,27 75,27l30 0 0 24 -370 0 0 -24 31 0c37,0 63,-11 79,-33 9,-14 14,-45 14,-94l0 -664 -104 0c-41,0 -70,3 -87,9 -22,8 -41,24 -57,47 -16,23 -25,54 -28,94l-24 0 9 -204 711 0z"/>
  <path id="16" class="fil0" d="M15232 482l0 344 191 0c50,0 83,-7 99,-22 22,-20 35,-54 37,-104l24 0 0 303 -24 0c-6,-42 -12,-70 -18,-82 -8,-15 -20,-27 -38,-35 -17,-9 -44,-13 -81,-13l-191 0 0 287c0,38 2,62 5,70 4,8 9,15 18,20 9,5 25,7 49,7l147 0c49,0 85,-4 107,-10 22,-7 43,-20 64,-40 26,-26 54,-66 81,-120l26 0 -75 218 -670 0 0 -24 31 0c21,0 40,-5 58,-15 14,-7 23,-17 28,-31 5,-14 7,-42 7,-84l0 -565c0,-55 -5,-89 -17,-102 -16,-17 -41,-26 -77,-26l-31 0 0 -24 670 0 9 191 -25 0c-9,-46 -19,-78 -30,-95 -11,-17 -27,-30 -48,-40 -17,-6 -47,-10 -90,-10l-238 0z"/>
 </g>
</svg>
